<svg width="309" height="325" viewBox="0 0 309 325" fill="none" xmlns="http://www.w3.org/2000/svg">
<path d="M0.400391 228.037L37.9004 163.085L70.3763 181.835L51.6263 214.311L149.054 270.561L167.804 238.085L200.28 256.835L162.78 321.787L0.400391 228.037ZM70.3763 181.835L89.1263 149.36L121.602 168.11L102.852 200.585L70.3763 181.835ZM121.602 168.11L140.352 135.634L205.304 173.134L186.554 205.61L121.602 168.11ZM94.1504 65.6577L112.9 33.1818L145.376 51.9318L126.626 84.4077L94.1504 65.6577ZM205.304 173.134L242.804 108.182L275.28 126.932L237.78 191.884L205.304 173.134ZM145.376 51.9318L164.126 19.4558L261.554 75.7058L242.804 108.182L145.376 51.9318Z" fill="url(#paint0_linear_2012_26)"/>
<path d="M73.8398 175.836L185.124 240.086L147.124 305.904L35.8398 241.654L73.8398 175.836Z" fill="#D2BAF9"/>
<path d="M136.315 142.625L247.6 206.875L209.6 272.693L98.3154 208.443L136.315 142.625Z" fill="#D2BAF9"/>
<defs>
<linearGradient id="paint0_linear_2012_26" x1="154.489" y1="-55.1066" x2="279.58" y2="178.648" gradientUnits="userSpaceOnUse">
<stop offset="0.605" stop-color="#D2BAF9"/>
</linearGradient>
</defs>
</svg>
