<svg width="246" height="296" viewBox="0 0 246 296" fill="none" xmlns="http://www.w3.org/2000/svg">
<path d="M0.132812 240.281L22.2716 168.623L58.1006 179.692L47.0312 215.521L154.518 248.729L165.587 212.9L201.416 223.97L179.278 295.628L0.132812 240.281ZM58.1006 179.692L69.17 143.863L104.999 154.933L93.9296 190.762L58.1006 179.692ZM104.999 154.933L116.068 119.104L187.726 141.242L176.657 177.071L104.999 154.933ZM55.4797 61.1358L66.5491 25.3067L102.378 36.3761L91.3087 72.2051L55.4797 61.1358ZM187.726 141.242L209.865 69.5842L245.694 80.6536L223.555 152.312L187.726 141.242ZM102.378 36.3761L113.447 0.547119L220.934 33.7552L209.865 69.5842L102.378 36.3761Z" fill="url(#paint0_linear_2023_4)"/>
<defs>
<linearGradient id="paint0_linear_2023_4" x1="101.751" y1="-116.17" x2="340.473" y2="57.6441" gradientUnits="userSpaceOnUse">
<stop stop-color="#ED7166"/>
</linearGradient>
</defs>
</svg>
