<svg width="623" height="535" viewBox="0 0 623 535" fill="none" xmlns="http://www.w3.org/2000/svg">
<g clip-path="url(#clip0_2012_36)">
<path d="M129.535 0.874268L340.71 78.5301L314.824 148.922L103.65 71.2656L129.535 0.874268ZM25.9947 282.44L237.169 360.096L211.283 430.487L0.109375 352.831L25.9947 282.44ZM314.824 148.922L385.216 174.807L359.331 245.198L288.939 219.313L314.824 148.922ZM263.054 289.704L333.445 315.59L307.56 385.981L237.169 360.096L263.054 289.704ZM359.331 245.198L429.722 271.084L403.837 341.475L333.445 315.59L359.331 245.198ZM455.607 200.692L525.999 226.577L500.113 296.969L429.722 271.084L455.607 200.692ZM403.837 341.475L474.228 367.36L448.343 437.752L377.951 411.866L403.837 341.475ZM551.884 156.186L622.275 182.071L596.39 252.463L525.999 226.577L551.884 156.186ZM448.343 437.752L518.734 463.637L492.849 534.028L422.457 508.143L448.343 437.752Z" fill="url(#paint0_linear_2012_36)"/>
</g>
<defs>
<linearGradient id="paint0_linear_2012_36" x1="518.676" y1="159.827" x2="693.221" y2="462.356" gradientUnits="userSpaceOnUse">
<stop offset="0.215" stop-color="#D2BAF9"/>
<stop offset="1" stop-color="#D2BAF9"/>
</linearGradient>
<clipPath id="clip0_2012_36">
<rect width="623" height="535" fill="white"/>
</clipPath>
</defs>
</svg>
