<svg width="59" height="25" viewBox="0 0 59 25" fill="none" xmlns="http://www.w3.org/2000/svg">
<path d="M3.87593 2.29322H6.69478V11.2288H3.87593V2.29322ZM0 1.05933H10.5707V3.55424H0V1.05933ZM20.4687 5.12712V7.16102H13.0285V5.12712H20.4687ZM14.9394 6.14407L14.2753 10.2254L13.1369 8.95085H20.9159V11.2288H11.47L12.2425 6.14407L11.47 1.05933H20.8481V3.33729H13.1369L14.2753 2.06272L14.9394 6.14407ZM33.6717 6.97119C33.5721 7.8661 33.2651 8.65255 32.7501 9.33051C32.2351 9.99941 31.5575 10.5192 30.7173 10.8898C29.886 11.2604 28.9284 11.4458 27.8442 11.4458C26.6605 11.4458 25.6261 11.2243 24.7408 10.7813C23.8552 10.3384 23.1641 9.71921 22.6673 8.92373C22.1794 8.12824 21.9355 7.2017 21.9355 6.14407C21.9355 5.08644 22.1794 4.1599 22.6673 3.36441C23.1641 2.56892 23.8552 1.94973 24.7408 1.50678C25.6261 1.06384 26.6605 0.842377 27.8442 0.842377C28.9284 0.842377 29.886 1.02769 30.7173 1.39831C31.5575 1.76892 32.2351 2.29322 32.7501 2.97119C33.2651 3.64011 33.5721 4.42204 33.6717 5.31695H30.8528C30.7624 4.88305 30.5862 4.51695 30.3243 4.21865C30.0621 3.9113 29.7189 3.67627 29.2943 3.51356C28.8786 3.35085 28.3952 3.26949 27.8442 3.26949C27.2117 3.26949 26.6652 3.38702 26.2044 3.62204C25.7436 3.84803 25.3913 4.17797 25.1474 4.61187C24.9034 5.03672 24.7814 5.54746 24.7814 6.14407C24.7814 6.74068 24.9034 7.25594 25.1474 7.68983C25.3913 8.11469 25.7436 8.44464 26.2044 8.67966C26.6652 8.90566 27.2117 9.01865 27.8442 9.01865C28.3952 9.01865 28.8786 8.9418 29.2943 8.78814C29.7189 8.63447 30.0621 8.40396 30.3243 8.09661C30.5862 7.78926 30.7624 7.41413 30.8528 6.97119H33.6717ZM35.0349 1.05933H37.8402V11.2288H35.0349V1.05933ZM43.0307 1.05933H45.8496V11.2288H43.0307V1.05933ZM36.607 4.81526H44.1962V7.31017H36.607V4.81526Z" fill="#161515"/>
<path d="M48.4453 11.8644V8.47458H50.1393V10.1695H55.2214V8.47458H56.9154V11.8644H48.4453ZM50.1393 8.47458V6.77966H51.8334V8.47458H50.1393ZM51.8334 6.77966V5.08475H55.2214V6.77966H51.8334ZM48.4453 3.38983V1.69491H50.1393V3.38983H48.4453ZM55.2214 5.08475V1.69491H56.9154V5.08475H55.2214ZM50.1393 1.69491V0H55.2214V1.69491H50.1393Z" fill="#D2BAF9"/>
<path d="M49.5039 11.8644V8.47458H51.1979V10.1695H56.28V8.47458H57.974V11.8644H49.5039ZM51.1979 8.47458V6.77966H52.892V8.47458H51.1979ZM52.892 6.77966V5.08475H56.28V6.77966H52.892ZM49.5039 3.38983V1.69491H51.1979V3.38983H49.5039ZM56.28 5.08475V1.69491H57.974V5.08475H56.28ZM51.1979 1.69491V0H56.28V1.69491H51.1979Z" fill="#D2BAF9"/>
<path d="M24.4801 21.9881V19.7237H31.4866V21.9881H24.4801ZM29.8875 13.7712L34.5087 23.9407H31.5137L27.6378 14.9644H28.4509L24.5614 23.9407H21.5664L26.1877 13.7712H29.8875ZM40.5399 13.7712C41.7416 13.7712 42.794 13.9836 43.6975 14.4085C44.61 14.8243 45.3147 15.4164 45.8117 16.1847C46.3176 16.9441 46.5706 17.8345 46.5706 18.8559C46.5706 19.8774 46.3176 20.7722 45.8117 21.5407C45.3147 22.3 44.61 22.8921 43.6975 23.3169C42.794 23.7328 41.7416 23.9407 40.5399 23.9407H35.4714V13.7712H40.5399ZM38.2631 22.761L36.9215 21.4457H40.7567C41.3621 21.4457 41.886 21.3417 42.3288 21.1339C42.7804 20.9169 43.1284 20.6142 43.3723 20.2254C43.6162 19.8367 43.7382 19.3802 43.7382 18.8559C43.7382 18.3226 43.6162 17.8661 43.3723 17.4864C43.1284 17.0977 42.7804 16.7994 42.3288 16.5915C41.886 16.3746 41.3621 16.2661 40.7567 16.2661H36.9215L38.2631 14.9508V22.761ZM47.557 20.6051H50.4165C50.4616 20.8854 50.5926 21.1294 50.8095 21.3373C51.0263 21.5451 51.3154 21.7078 51.6768 21.8254C52.0472 21.9339 52.4808 21.9881 52.9778 21.9881C53.6645 21.9881 54.2066 21.9023 54.6041 21.7305C55.0016 21.5498 55.2004 21.2875 55.2004 20.9441C55.2004 20.682 55.0875 20.4785 54.8616 20.3339C54.6356 20.1892 54.202 20.0853 53.5606 20.022L51.6633 19.8457C50.2629 19.7192 49.2465 19.4028 48.614 18.8966C47.9815 18.3813 47.6654 17.6898 47.6654 16.822C47.6654 16.1169 47.8687 15.5203 48.2752 15.0322C48.6909 14.5441 49.269 14.1779 50.0099 13.9339C50.7597 13.6808 51.6317 13.5542 52.6255 13.5542C53.6012 13.5542 54.4686 13.6943 55.2275 13.9746C55.9864 14.2457 56.5872 14.6345 57.0299 15.1407C57.4816 15.6469 57.7255 16.2345 57.7617 16.9034H54.9158C54.8796 16.6593 54.7623 16.4514 54.5634 16.2796C54.3737 16.0989 54.1118 15.9633 53.7774 15.8729C53.443 15.7734 53.0411 15.7237 52.5713 15.7237C51.9388 15.7237 51.4373 15.8096 51.067 15.9813C50.6966 16.1441 50.5113 16.3881 50.5113 16.7135C50.5113 16.9486 50.6197 17.1384 50.8366 17.283C51.0625 17.4277 51.4644 17.5271 52.0427 17.5813L54.062 17.7847C55.0286 17.8751 55.8011 18.0333 56.3794 18.2593C56.9577 18.4763 57.3778 18.7791 57.6398 19.1678C57.9017 19.5565 58.0328 20.0401 58.0328 20.6186C58.0328 21.3328 57.8204 21.9566 57.3958 22.4898C56.9713 23.0142 56.375 23.4254 55.6069 23.7237C54.8389 24.0129 53.9445 24.1576 52.9236 24.1576C51.8756 24.1576 50.9494 24.0129 50.1454 23.7237C49.3503 23.4254 48.7269 23.0095 48.2752 22.4763C47.8235 21.9339 47.5841 21.3102 47.557 20.6051Z" fill="#161515"/>
</svg>
