<svg width="257" height="307" viewBox="0 0 257 307" fill="none" xmlns="http://www.w3.org/2000/svg">
<path d="M35.9618 262.35L47.0311 226.521L154.518 259.729L143.449 295.558L35.9618 262.35ZM11.2021 215.452L22.2715 179.623L58.1005 190.692L47.0311 226.521L11.2021 215.452ZM154.518 259.729L187.726 152.242L223.555 163.312L190.347 270.799L154.518 259.729ZM80.2393 119.034L91.3086 83.2051L198.795 116.413L187.726 152.242L80.2393 119.034ZM55.4796 72.1358L66.549 36.3067L102.378 47.3761L91.3086 83.2051L55.4796 72.1358ZM102.378 47.3761L113.447 11.5471L256.763 55.8246L245.694 91.6536L102.378 47.3761Z" fill="url(#paint0_linear_2012_31)"/>
<defs>
<linearGradient id="paint0_linear_2012_31" x1="101.751" y1="-105.17" x2="340.473" y2="68.6441" gradientUnits="userSpaceOnUse">
<stop stop-color="#ED7166"/>
</linearGradient>
</defs>
</svg>
