<svg width="310" height="377" viewBox="0 0 310 377" fill="none" xmlns="http://www.w3.org/2000/svg">
<path d="M124.79 343.42L157.999 235.933L193.828 247.002L160.62 354.489L124.79 343.42ZM193.828 247.002L204.897 211.173L240.726 222.242L229.657 258.071L193.828 247.002ZM240.726 222.242L262.865 150.584L155.378 117.376L144.308 153.205L108.479 142.136L130.618 70.4777L309.763 125.825L276.555 233.312L240.726 222.242Z" fill="url(#paint0_linear_2012_41)"/>
<path d="M71.7907 273.42L104.999 165.933L140.828 177.002L107.62 284.489L71.7907 273.42ZM140.828 177.002L151.897 141.173L187.726 152.242L176.657 188.071L140.828 177.002ZM187.726 152.242L209.865 80.5841L102.378 47.376L91.3085 83.205L55.4795 72.1357L77.6182 0.477661L256.763 55.8245L223.555 163.312L187.726 152.242Z" fill="url(#paint1_linear_2012_41)"/>
<defs>
<linearGradient id="paint0_linear_2012_41" x1="154.751" y1="-35.1703" x2="393.473" y2="138.644" gradientUnits="userSpaceOnUse">
<stop stop-color="#ED7166"/>
</linearGradient>
<linearGradient id="paint1_linear_2012_41" x1="101.751" y1="-105.17" x2="340.473" y2="68.644" gradientUnits="userSpaceOnUse">
<stop stop-color="#ED7166"/>
<stop offset="0.605" stop-color="#D2BAF9"/>
</linearGradient>
</defs>
</svg>
