<svg width="145" height="40" viewBox="0 0 145 40" fill="none" xmlns="http://www.w3.org/2000/svg">
<mask id="mask0_88_1760" style="mask-type:luminance" maskUnits="userSpaceOnUse" x="0" y="0" width="145" height="40">
<path d="M144.175 0.409424H0.0849609V39.529H144.175V0.409424Z" fill="white"/>
</mask>
<g mask="url(#mask0_88_1760)">
<path d="M116.062 0.63562H120.669V22.3048L139.571 5.46126V0.63562H144.178V32.8511H139.571V11.1821L120.669 28.0255V32.8614H116.062V0.63562Z" fill="#161515"/>
<path d="M23.7273 0.409424L32.302 28.2006H35.3939V39.5187H30.9726V32.6147H4.50631V39.5187H0.0849609V28.2006H3.17681L11.7515 0.409424H23.7377H23.7273ZM15.0598 4.63828L7.73214 28.5195H27.6024L20.3674 4.63828H15.0701H15.0598Z" fill="#161515"/>
<path d="M111.043 0.409546V32.625H106.436V6.16122L94.1714 32.625H89.5645L77.393 6.39786V32.625H72.7861V0.409546H79.5161L92.0072 27.1924L104.457 0.409546H111.053H111.043Z" fill="#161515"/>
<path d="M63.4351 24.795H68.042V26.0399C68.042 28.3757 67.6297 30.1248 66.8155 31.3081C66.0014 32.4914 64.4863 33.0778 62.2706 33.0778C60.7659 33.0778 59.4157 32.6457 58.2408 31.7916C57.0556 30.9377 55.757 29.5691 54.3451 27.6966C51.9128 31.2874 49.0787 33.0778 45.8219 33.0778C44.0698 33.0778 42.5651 32.7075 41.3078 31.9769C40.0505 31.2361 39.0816 30.2482 38.4014 28.9827C37.7212 27.7274 37.3915 26.359 37.3915 24.8876C37.3915 23.4162 37.7522 22.0272 38.4735 20.8131C39.195 19.599 40.1741 18.6626 41.4006 17.9835C42.6269 17.3045 43.977 16.9751 45.4612 16.9751C46.1723 16.9751 46.9246 17.0678 47.7183 17.253L37.3398 0.409546H43.1011L54.0668 19.0948L64.0329 0.409546H69.1447L56.8804 23.4677C57.3752 24.085 57.7255 24.5377 57.9419 24.8465C59.0138 26.1944 59.859 27.1821 60.4567 27.7892C61.0545 28.4065 61.6522 28.7049 62.2293 28.7049C63.0229 28.7049 63.4248 27.7994 63.4248 25.9886V24.795H63.4351ZM51.5418 23.9616C50.6452 22.9532 49.8001 22.1918 48.9859 21.6876C48.1717 21.1835 47.2751 20.9262 46.2857 20.9262C44.9664 20.9262 43.9255 21.3276 43.1732 22.1198C42.4209 22.9224 42.0395 23.8689 42.0395 24.9699C42.0395 26.0091 42.3899 26.9146 43.1011 27.6862C43.8123 28.458 44.8118 28.8387 46.1001 28.8387C48.1614 28.8387 49.9753 27.2129 51.5418 23.9616Z" fill="#161515"/>
</g>
</svg>
