<svg width="200" height="17" viewBox="0 0 200 17" fill="none" xmlns="http://www.w3.org/2000/svg">
<g clip-path="url(#clip0_88_1615)">
<path d="M188.136 9.59905H191.614L190.085 5.40323C190.039 5.28314 189.939 5.04295 189.871 5.04295C189.802 5.04295 189.703 5.28314 189.65 5.40323L188.136 9.59905ZM186.01 2.03304C186.53 0.802052 187.294 0.0139222 189.878 0.0139222C191.499 0.0139222 192.936 0.179054 193.739 2.03304L200 16.8123H194.251L192.921 13.3971H186.806L185.483 16.8123H179.726L186.01 2.03304ZM173.656 16.8123L168.535 10.3872C168.003 9.80749 167.658 9.08695 167.541 8.31556C167.617 7.64261 167.881 7.00356 168.306 6.46909L172.892 0.209078H179.367L173.496 7.06205C172.862 7.81265 172.793 8.15042 172.793 8.29304C172.908 8.87864 173.224 9.40806 173.687 9.79427L180.262 16.8123H173.656ZM161.548 0.209078H167.013V16.8123H161.548V0.209078ZM153.085 16.8123L153.321 7.05455C153.321 6.74681 153.321 6.43906 153.085 6.43906C152.848 6.43906 152.794 6.70177 152.458 7.2422L147.65 15.3111C147.191 16.0993 146.342 17 143.995 17C140.662 17 140.226 15.0034 140.226 13.0143V0.209078H145.784L145.547 9.71918V9.98193C145.547 10.1921 145.547 10.5524 145.837 10.5524C145.975 10.5524 146.097 10.3347 146.319 9.95936L150.982 1.95797C151.329 1.31849 151.86 0.793222 152.507 0.447553C153.156 0.101886 153.893 -0.0489156 154.629 0.0139222C158.497 0.0139222 158.642 2.76862 158.642 4.1197V16.8123H153.085ZM127.75 16.8123V4.32987H121.711V0.209078H139.255V4.32987H133.216V16.8123H127.75ZM110.374 4.19476C110.223 4.16966 110.07 4.1775 109.923 4.21773C109.777 4.25796 109.64 4.32958 109.525 4.42745C109.436 4.5473 109.372 4.68328 109.336 4.82756C109.301 4.97183 109.295 5.12155 109.319 5.26812V16.8123H103.853V2.60349C103.836 2.29321 103.886 1.98297 103.998 1.69233C104.109 1.40168 104.281 1.1369 104.503 0.914642C104.85 0.63012 105.253 0.42029 105.688 0.298745C106.122 0.1772 106.578 0.146651 107.025 0.209078H117.613C118.607 0.209078 119.402 0.209078 120.106 0.914642C120.326 1.1369 120.498 1.40168 120.61 1.69233C120.722 1.98297 120.772 2.29321 120.755 2.60349V16.8123H115.29V5.26812C115.309 5.1172 115.298 4.96391 115.258 4.81708C115.217 4.67024 115.148 4.53273 115.052 4.41243C114.936 4.31757 114.799 4.24785 114.653 4.20777C114.507 4.16769 114.354 4.15814 114.204 4.17975L110.374 4.19476ZM89.5115 11.7007C90.276 12.7967 91.2009 12.9167 92.5693 12.9167C93.9374 12.9167 94.8626 12.7967 95.6271 11.7007C96.2542 10.8 96.2542 9.87681 96.2542 8.54824C96.2542 7.09959 96.2542 6.29644 95.6271 5.38822C94.8626 4.29985 93.9832 4.17975 92.5693 4.17975C91.1551 4.17975 90.2301 4.29985 89.5115 5.38822C88.9076 6.27393 88.8847 7.17464 88.8847 8.54824C88.7719 9.63683 88.99 10.7338 89.5115 11.7007ZM99.9766 1.72529C101.812 3.38411 101.888 6.28143 101.888 8.48069C101.888 10.68 101.812 13.5848 99.9766 15.2361C98.1421 16.8874 95.0925 16.9475 92.577 16.9475C90.062 16.9475 86.9735 16.8724 85.1846 15.2361C83.3958 13.5998 83.2735 10.6349 83.2735 8.48069C83.2735 6.32647 83.3499 3.35409 85.1846 1.72529C87.0193 0.0964881 90.0161 0.0139222 92.577 0.0139222C95.1383 0.0139222 98.1654 0.088982 99.9766 1.72529ZM74.5738 16.8123C71.9364 16.8123 70.1705 16.4596 68.7944 14.7707C67.7777 13.5397 67.2655 11.9034 67.2655 8.72089C67.2655 5.94366 67.5331 3.857 68.7409 2.3633C70.2698 0.419246 72.7391 0.209078 74.6426 0.209078H81.798V4.32987H77.28C75.4912 4.32987 74.161 4.32987 73.4118 5.63592C72.9949 6.58181 72.8041 7.60882 72.8537 8.63831C72.7662 9.57327 72.9078 10.5153 73.2665 11.3855C74.031 12.6915 75.56 12.6915 77.3718 12.6915H82.0656V16.8199L74.5738 16.8123ZM61.6391 16.8123L56.5171 10.3872C55.9858 9.80749 55.6402 9.08695 55.5233 8.31556C55.5997 7.64261 55.8643 7.00356 56.2878 6.46909L60.8364 0.209078H67.319L61.4479 7.06205C60.8134 7.81265 60.7446 8.15042 60.7446 8.29304C60.8605 8.87864 61.1759 9.40806 61.6391 9.79427L68.2135 16.8123H61.6391ZM49.5298 0.209078H54.9881V16.8123H49.5298V0.209078ZM34.7297 11.6632C35.4942 12.7591 36.4269 12.8792 37.7877 12.8792C39.1484 12.8792 40.081 12.7591 40.8455 11.6632C41.48 10.7625 41.48 9.83932 41.48 8.51071C41.48 7.06206 41.48 6.25892 40.8455 5.35068C40.081 4.26232 39.2019 4.14222 37.7877 4.14222C36.3734 4.14222 35.4408 4.26232 34.7297 5.35068C34.1258 6.23639 34.1029 7.13712 34.1029 8.51071C33.9938 9.59914 34.2118 10.6951 34.7297 11.6632ZM28.5452 6.46909C28.5259 4.71173 29.1935 3.01399 30.4106 1.72529C32.2223 0.088982 35.2649 0.0139222 37.8029 0.0139222C40.3409 0.0139222 43.3836 0.088982 45.1953 1.72529C47.0071 3.3616 47.1064 6.28143 47.1064 8.48069C47.1064 10.68 47.03 13.5848 45.1953 15.2361C43.3606 16.8874 40.318 16.9475 37.8029 16.9475C35.2878 16.9475 32.1917 16.8724 30.4106 15.2361C29.1492 14.0727 28.4993 11.9334 28.4993 10.0869H26.2518V16.7523H20.7859V0.209078H26.2518V6.46909H28.5452ZM6.49797 1.72529C7.20128 0.1115 9.11246 0.0139222 10.1521 0.0139222C11.1918 0.0139222 13.0953 0.1115 13.7986 1.72529L20.3043 16.8123H14.5249L10.4197 5.83108C10.3662 5.7335 10.2745 5.42575 10.1521 5.42575C10.0298 5.42575 9.93047 5.7335 9.88458 5.83108L5.80231 16.8123H0L6.49797 1.72529Z" fill="#161515"/>
</g>
<defs>
<clipPath id="clip0_88_1615">
<rect width="200" height="17" fill="white"/>
</clipPath>
</defs>
</svg>
