<svg width="192" height="31" viewBox="0 0 192 31" fill="none" xmlns="http://www.w3.org/2000/svg">
<mask id="mask0_88_1723" style="mask-type:alpha" maskUnits="userSpaceOnUse" x="0" y="0" width="192" height="31">
<g clip-path="url(#clip0_88_1723)">
<path d="M19.695 10.3032C21.6221 8.92032 23.7099 8.01982 25.9583 7.44093C26.7613 7.23188 27.5804 7.08717 28.4154 6.91028C28.4476 7.055 28.4797 7.11932 28.4958 7.19973C28.7367 9.98163 28.5279 12.7314 27.6286 15.4008C27.5643 15.6098 27.5 15.7384 27.2109 15.6902C22.6018 14.9666 18.4905 16.06 14.8931 19.0189C14.845 19.0671 14.7807 19.0992 14.7325 19.1313C14.7164 19.1313 14.7004 19.1313 14.6522 19.1474C12.9177 17.6519 10.9103 16.5585 8.6619 15.9635C6.42959 15.3685 4.16516 15.3042 1.85255 15.7223C0.824725 12.8761 0.632008 9.94946 0.905024 6.94244C4.08486 7.42485 7.00774 8.42183 9.67366 10.3032C10.5409 6.92636 12.2914 4.11229 14.6843 1.60376C15.8727 2.84195 16.8845 4.17661 17.7678 5.62385C18.635 7.07109 19.2452 8.63088 19.695 10.3032Z" fill="#FF6000"/>
<path d="M77.96 8.93641C80.7223 8.93641 83.3721 8.93641 86.0059 8.93641C87.9171 8.93641 89.8443 8.90424 91.7553 8.98465C92.6065 9.0168 93.4898 9.22585 94.2927 9.51529C96.1878 10.2068 97.312 11.5897 97.6011 13.6158C97.9223 15.7867 97.2639 17.5876 95.4651 18.874C94.7745 19.3564 94.0037 19.7263 93.2007 20.1926C95.4331 22.3796 97.2639 24.9203 99.6085 26.8017C97.9384 26.8017 96.1235 26.85 94.3088 26.7856C93.4577 26.7534 92.7671 26.2711 92.221 25.5796C90.9042 23.9073 89.5552 22.267 88.174 20.6268C87.9812 20.4017 87.6279 20.2409 87.3228 20.2249C86.2307 20.1765 85.1226 20.2087 83.9503 20.2087C83.9503 21.27 83.9503 22.267 83.9503 23.264C83.9503 23.8428 83.9503 24.4218 83.9503 24.9846C83.9342 25.7564 84.1108 26.4158 84.8817 26.8338C83.3399 26.7374 81.75 27.268 80.3046 26.3193C79.3251 25.6761 78.7951 24.8559 78.8111 23.6177C78.8433 19.6459 78.8272 15.6901 78.8111 11.7183C78.7951 10.7856 78.6826 9.83691 77.96 8.93641ZM83.9985 12.4741V16.7836C85.3796 16.7836 86.7286 16.7998 88.0616 16.7836C88.9288 16.7675 89.8121 16.7836 90.6793 16.6711C91.8678 16.5102 92.5262 15.7385 92.5423 14.6127C92.5583 13.4068 91.948 12.5706 90.6954 12.5062C88.4791 12.3937 86.2629 12.4741 83.9985 12.4741Z" fill="#FF6000"/>
<path d="M54.0469 26.898C54.4323 26.3674 54.898 25.9171 55.155 25.3543C57.4515 20.4819 59.6999 15.5935 61.9644 10.7051C62.2212 10.1423 62.4943 9.57944 61.9162 8.96838H70.3315C70.3796 9.49904 70.2833 10.0458 70.476 10.4639C72.7886 15.5131 75.1173 20.5624 77.4781 25.5794C77.7029 26.0618 78.1526 26.4317 78.506 26.8498C78.4256 26.8498 78.281 26.8819 78.1205 26.8819C76.4984 26.8819 74.8925 26.8658 73.2704 26.898C72.9011 26.898 72.6922 26.7855 72.5477 26.4317C72.1462 25.499 71.7126 24.5663 71.2469 23.6498C71.1505 23.4568 70.8455 23.2638 70.6366 23.2638C67.7137 23.2317 64.8069 23.2317 61.884 23.2638C61.6592 23.2638 61.338 23.4889 61.2417 23.698C60.7759 24.5984 60.3745 25.5473 59.9247 26.4638C59.8445 26.6407 59.6196 26.8658 59.4591 26.8658C57.6282 26.914 55.7974 26.898 54.0469 26.898ZM69.1431 19.1955C68.1634 17.1533 67.248 15.2237 66.2683 13.1814C65.2887 15.2398 64.3733 17.1694 63.3936 19.1955H69.1431Z" fill="#FF6000"/>
<path d="M167.542 26.898C167.927 26.3674 168.392 25.9171 168.65 25.3543C170.946 20.4819 173.195 15.5935 175.459 10.7051C175.716 10.1423 175.989 9.57944 175.41 8.96838H183.826C183.874 9.49904 183.778 10.0458 183.971 10.4639C186.283 15.5131 188.613 20.5624 190.972 25.5794C191.198 26.0618 191.647 26.4317 192 26.8498C191.92 26.8498 191.776 26.8819 191.615 26.8819C189.993 26.8819 188.387 26.8658 186.765 26.898C186.396 26.898 186.187 26.7855 186.043 26.4317C185.641 25.499 185.207 24.5663 184.742 23.6498C184.645 23.4568 184.341 23.2638 184.132 23.2638C181.208 23.2317 178.301 23.2317 175.379 23.2638C175.154 23.2638 174.833 23.4889 174.736 23.698C174.271 24.5984 173.869 25.5473 173.419 26.4638C173.339 26.6407 173.115 26.8658 172.954 26.8658C171.138 26.914 169.292 26.898 167.542 26.898ZM182.654 19.1955C181.674 17.1533 180.759 15.2237 179.779 13.1814C178.799 15.2398 177.884 17.1694 176.905 19.1955H182.654Z" fill="#FF6000"/>
<path d="M137.301 9.83691C136.642 11.3163 135.968 12.8439 135.294 14.3716C132.483 12.056 129.303 12.1364 126.043 12.6992C125.673 12.7635 125.304 12.9404 124.999 13.1495C124.18 13.7123 124.228 14.7254 125.16 15.0309C126.252 15.4007 127.424 15.5454 128.58 15.7544C130.412 16.0922 132.258 16.3976 134.088 16.7515C134.522 16.8318 134.924 17.057 135.325 17.2338C138.955 18.9544 138.441 23.1354 136.45 24.9202C134.956 26.2711 133.141 26.7856 131.198 27.0107C127.809 27.3967 124.549 26.7053 121.289 25.9012C120.599 25.7243 119.892 25.6761 119.121 25.5474C119.49 24.1645 119.892 22.6851 120.277 21.2539C123.522 23.2157 127.023 23.6178 130.668 23.2801C131.15 23.2318 131.663 23.0228 132.081 22.7655C132.932 22.2349 132.916 21.2057 132.017 20.7716C131.326 20.4338 130.54 20.2409 129.769 20.1123C127.825 19.7745 125.85 19.5494 123.907 19.2118C123.248 19.0992 122.59 18.8419 121.964 18.5847C118.366 17.1535 118.559 13.3424 120.486 11.3002C121.915 9.77259 123.746 9.11329 125.754 8.83992C128.789 8.43791 131.776 8.90424 134.748 9.49922C135.583 9.6761 136.402 9.72434 137.301 9.83691Z" fill="#FF6000"/>
<path d="M97.8262 8.98462H104.989C104.443 9.99769 104.362 11.0429 104.362 12.1203C104.362 14.7575 104.362 17.4107 104.362 20.0479C104.362 21.672 105.085 22.5725 106.675 22.9584C108.024 23.2801 109.389 23.264 110.706 22.7815C111.895 22.3634 112.441 21.5595 112.441 20.3052C112.457 17.4268 112.489 14.5485 112.424 11.67C112.409 10.7695 112.152 9.88512 112.007 8.98462H118.929C117.933 9.70824 117.901 10.7374 117.885 11.7344C117.869 14.1625 117.917 16.5906 117.869 19.0188C117.853 20.0318 117.74 21.077 117.483 22.0419C116.889 24.2609 115.396 25.7564 113.26 26.4962C110.08 27.6057 106.852 27.6218 103.672 26.5444C100.733 25.5474 99.1591 23.3765 98.9986 20.3213C98.854 17.668 98.9343 14.9987 98.9022 12.3293C98.9022 11.8148 98.9022 11.3002 98.8379 10.8017C98.8059 10.1263 98.6131 9.46704 97.8262 8.98462Z" fill="#FF6000"/>
<path d="M148.318 8.98462H155.481C154.935 9.99769 154.855 11.0429 154.855 12.1203C154.855 14.7575 154.855 17.4107 154.855 20.0479C154.855 21.672 155.577 22.5725 157.167 22.9584C158.517 23.2801 159.881 23.264 161.198 22.7815C162.386 22.3634 162.932 21.5595 162.932 20.3052C162.948 17.4268 162.981 14.5485 162.917 11.67C162.9 10.7695 162.644 9.88512 162.499 8.98462H169.42C168.425 9.70824 168.393 10.7374 168.376 11.7344C168.361 14.1625 168.409 16.5906 168.36 19.0188C168.345 20.0318 168.232 21.077 167.975 22.0419C167.381 24.2609 165.887 25.7564 163.751 26.4962C160.572 27.6057 157.344 27.6218 154.164 26.5444C151.224 25.5474 149.651 23.3765 149.491 20.3213C149.346 17.668 149.427 14.9987 149.394 12.3293C149.394 11.8148 149.394 11.3002 149.33 10.8017C149.282 10.1263 149.105 9.46704 148.318 8.98462Z" fill="#FF6000"/>
<path d="M53.3727 8.98455H59.877C59.6361 9.37049 59.3791 9.74033 59.1864 10.1263C56.8577 15.1272 54.529 20.1122 52.2004 25.1132C51.9434 25.676 51.7025 26.2709 52.2968 26.8659H43.6566C44.1865 26.2227 43.9456 25.6116 43.6566 24.9845C41.2958 19.9514 38.951 14.9182 36.5902 9.88505C36.4297 9.56344 36.1888 9.274 35.9639 8.95239H42.5003C41.9382 9.62776 42.1309 10.2549 42.436 10.882C44.2026 14.6127 45.9692 18.3433 47.7357 22.074C47.7839 22.1865 47.8643 22.283 47.9766 22.476C48.6351 21.1091 49.2615 19.8066 49.8878 18.5041C51.1083 15.8991 52.3288 13.2941 53.5494 10.7052C53.8063 10.1584 53.9026 9.59561 53.3727 8.98455Z" fill="#FF6000"/>
<path d="M9.68932 28.1365C5.96344 27.1877 1.80396 21.2541 2.17333 17.443C6.34889 16.7354 10.0748 17.7003 13.4312 20.4179C11.4398 22.6369 10.2032 25.1937 9.68932 28.1365Z" fill="#FF6000"/>
<path d="M11.4082 28.7957C11.9061 28.9244 12.3718 29.0209 12.8536 29.0851C13.1427 29.1174 13.4157 29.1496 13.7208 29.1656L13.8975 29.1817C14.6523 29.1817 15.4071 29.1978 16.1619 29.1174C21.5258 28.5706 25.9905 24.4702 27.0183 19.1475C27.1307 18.6007 27.1628 18.038 27.2271 17.4912C19.39 15.8993 12.2273 21.5756 11.4082 28.7957Z" fill="#FF6000"/>
<path d="M143.179 22.4438C141.878 22.4438 140.817 23.3927 140.817 24.5665C140.817 25.7404 141.878 26.6891 143.179 26.6891C144.479 26.6891 145.538 25.7404 145.538 24.5665C145.538 23.4087 144.479 22.4438 143.179 22.4438Z" fill="#FF6000"/>
</g>
</mask>
<g mask="url(#mask0_88_1723)">
</g>
<g clip-path="url(#clip1_88_1723)">
<path d="M19.695 10.3032C21.6221 8.92032 23.7099 8.01982 25.9583 7.44093C26.7613 7.23188 27.5804 7.08717 28.4154 6.91028C28.4476 7.055 28.4797 7.11932 28.4958 7.19973C28.7367 9.98163 28.5279 12.7314 27.6286 15.4008C27.5643 15.6098 27.5 15.7384 27.2109 15.6902C22.6018 14.9666 18.4905 16.06 14.8931 19.0189C14.845 19.0671 14.7807 19.0992 14.7325 19.1313C14.7164 19.1313 14.7004 19.1313 14.6522 19.1474C12.9177 17.6519 10.9103 16.5585 8.6619 15.9635C6.42959 15.3685 4.16516 15.3042 1.85255 15.7223C0.824725 12.8761 0.632008 9.94946 0.905024 6.94244C4.08486 7.42485 7.00774 8.42183 9.67366 10.3032C10.5409 6.92636 12.2914 4.11229 14.6843 1.60376C15.8727 2.84195 16.8845 4.17661 17.7678 5.62385C18.635 7.07109 19.2452 8.63088 19.695 10.3032Z" fill="#161515"/>
<path d="M77.96 8.93641C80.7223 8.93641 83.3721 8.93641 86.0059 8.93641C87.9171 8.93641 89.8443 8.90424 91.7553 8.98465C92.6065 9.0168 93.4898 9.22585 94.2927 9.51529C96.1878 10.2068 97.312 11.5897 97.6011 13.6158C97.9223 15.7867 97.2639 17.5876 95.4651 18.874C94.7745 19.3564 94.0037 19.7263 93.2007 20.1926C95.4331 22.3796 97.2639 24.9203 99.6085 26.8017C97.9384 26.8017 96.1235 26.85 94.3088 26.7856C93.4577 26.7534 92.7671 26.2711 92.221 25.5796C90.9042 23.9073 89.5552 22.267 88.174 20.6268C87.9812 20.4017 87.6279 20.2409 87.3228 20.2249C86.2307 20.1765 85.1226 20.2087 83.9503 20.2087C83.9503 21.27 83.9503 22.267 83.9503 23.264C83.9503 23.8428 83.9503 24.4218 83.9503 24.9846C83.9342 25.7564 84.1108 26.4158 84.8817 26.8338C83.3399 26.7374 81.75 27.268 80.3046 26.3193C79.3251 25.6761 78.7951 24.8559 78.8111 23.6177C78.8433 19.6459 78.8272 15.6901 78.8111 11.7183C78.7951 10.7856 78.6826 9.83691 77.96 8.93641ZM83.9985 12.4741V16.7836C85.3796 16.7836 86.7286 16.7998 88.0616 16.7836C88.9288 16.7675 89.8121 16.7836 90.6793 16.6711C91.8678 16.5102 92.5262 15.7385 92.5423 14.6127C92.5583 13.4068 91.948 12.5706 90.6954 12.5062C88.4791 12.3937 86.2629 12.4741 83.9985 12.4741Z" fill="#161515"/>
<path d="M54.0469 26.898C54.4323 26.3674 54.898 25.9171 55.155 25.3543C57.4515 20.4819 59.6999 15.5935 61.9644 10.7051C62.2212 10.1423 62.4943 9.57944 61.9162 8.96838H70.3315C70.3796 9.49904 70.2833 10.0458 70.476 10.4639C72.7886 15.5131 75.1173 20.5624 77.4781 25.5794C77.7029 26.0618 78.1526 26.4317 78.506 26.8498C78.4256 26.8498 78.281 26.8819 78.1205 26.8819C76.4984 26.8819 74.8925 26.8658 73.2704 26.898C72.9011 26.898 72.6922 26.7855 72.5477 26.4317C72.1462 25.499 71.7126 24.5663 71.2469 23.6498C71.1505 23.4568 70.8455 23.2638 70.6366 23.2638C67.7137 23.2317 64.8069 23.2317 61.884 23.2638C61.6592 23.2638 61.338 23.4889 61.2417 23.698C60.7759 24.5984 60.3745 25.5473 59.9247 26.4638C59.8445 26.6407 59.6196 26.8658 59.4591 26.8658C57.6282 26.914 55.7974 26.898 54.0469 26.898ZM69.1431 19.1955C68.1634 17.1533 67.248 15.2237 66.2683 13.1814C65.2887 15.2398 64.3733 17.1694 63.3936 19.1955H69.1431Z" fill="#161515"/>
<path d="M167.542 26.898C167.927 26.3674 168.392 25.9171 168.65 25.3543C170.946 20.4819 173.195 15.5935 175.459 10.7051C175.716 10.1423 175.989 9.57944 175.41 8.96838H183.826C183.874 9.49904 183.778 10.0458 183.971 10.4639C186.283 15.5131 188.613 20.5624 190.972 25.5794C191.198 26.0618 191.647 26.4317 192 26.8498C191.92 26.8498 191.776 26.8819 191.615 26.8819C189.993 26.8819 188.387 26.8658 186.765 26.898C186.396 26.898 186.187 26.7855 186.043 26.4317C185.641 25.499 185.207 24.5663 184.742 23.6498C184.645 23.4568 184.341 23.2638 184.132 23.2638C181.208 23.2317 178.301 23.2317 175.379 23.2638C175.154 23.2638 174.833 23.4889 174.736 23.698C174.271 24.5984 173.869 25.5473 173.419 26.4638C173.339 26.6407 173.115 26.8658 172.954 26.8658C171.138 26.914 169.292 26.898 167.542 26.898ZM182.654 19.1955C181.674 17.1533 180.759 15.2237 179.779 13.1814C178.799 15.2398 177.884 17.1694 176.905 19.1955H182.654Z" fill="#161515"/>
<path d="M137.301 9.83691C136.642 11.3163 135.968 12.8439 135.294 14.3716C132.483 12.056 129.303 12.1364 126.043 12.6992C125.673 12.7635 125.304 12.9404 124.999 13.1495C124.18 13.7123 124.228 14.7254 125.16 15.0309C126.252 15.4007 127.424 15.5454 128.58 15.7544C130.412 16.0922 132.258 16.3976 134.088 16.7515C134.522 16.8318 134.924 17.057 135.325 17.2338C138.955 18.9544 138.441 23.1354 136.45 24.9202C134.956 26.2711 133.141 26.7856 131.198 27.0107C127.809 27.3967 124.549 26.7053 121.289 25.9012C120.599 25.7243 119.892 25.6761 119.121 25.5474C119.49 24.1645 119.892 22.6851 120.277 21.2539C123.522 23.2157 127.023 23.6178 130.668 23.2801C131.15 23.2318 131.663 23.0228 132.081 22.7655C132.932 22.2349 132.916 21.2057 132.017 20.7716C131.326 20.4338 130.54 20.2409 129.769 20.1123C127.825 19.7745 125.85 19.5494 123.907 19.2118C123.248 19.0992 122.59 18.8419 121.964 18.5847C118.366 17.1535 118.559 13.3424 120.486 11.3002C121.915 9.77259 123.746 9.11329 125.754 8.83992C128.789 8.43791 131.776 8.90424 134.748 9.49922C135.583 9.6761 136.402 9.72434 137.301 9.83691Z" fill="#161515"/>
<path d="M97.8262 8.98462H104.989C104.443 9.99769 104.362 11.0429 104.362 12.1203C104.362 14.7575 104.362 17.4107 104.362 20.0479C104.362 21.672 105.085 22.5725 106.675 22.9584C108.024 23.2801 109.389 23.264 110.706 22.7815C111.895 22.3634 112.441 21.5595 112.441 20.3052C112.457 17.4268 112.489 14.5485 112.424 11.67C112.409 10.7695 112.152 9.88512 112.007 8.98462H118.929C117.933 9.70824 117.901 10.7374 117.885 11.7344C117.869 14.1625 117.917 16.5906 117.869 19.0188C117.853 20.0318 117.74 21.077 117.483 22.0419C116.889 24.2609 115.396 25.7564 113.26 26.4962C110.08 27.6057 106.852 27.6218 103.672 26.5444C100.733 25.5474 99.1591 23.3765 98.9986 20.3213C98.854 17.668 98.9343 14.9987 98.9022 12.3293C98.9022 11.8148 98.9022 11.3002 98.8379 10.8017C98.8059 10.1263 98.6131 9.46704 97.8262 8.98462Z" fill="#161515"/>
<path d="M148.318 8.98462H155.481C154.935 9.99769 154.855 11.0429 154.855 12.1203C154.855 14.7575 154.855 17.4107 154.855 20.0479C154.855 21.672 155.577 22.5725 157.167 22.9584C158.517 23.2801 159.881 23.264 161.198 22.7815C162.386 22.3634 162.932 21.5595 162.932 20.3052C162.948 17.4268 162.981 14.5485 162.917 11.67C162.9 10.7695 162.644 9.88512 162.499 8.98462H169.42C168.425 9.70824 168.393 10.7374 168.376 11.7344C168.361 14.1625 168.409 16.5906 168.36 19.0188C168.345 20.0318 168.232 21.077 167.975 22.0419C167.381 24.2609 165.887 25.7564 163.751 26.4962C160.572 27.6057 157.344 27.6218 154.164 26.5444C151.224 25.5474 149.651 23.3765 149.491 20.3213C149.346 17.668 149.427 14.9987 149.394 12.3293C149.394 11.8148 149.394 11.3002 149.33 10.8017C149.282 10.1263 149.105 9.46704 148.318 8.98462Z" fill="#161515"/>
<path d="M53.3727 8.98455H59.877C59.6361 9.37049 59.3791 9.74033 59.1864 10.1263C56.8577 15.1272 54.529 20.1122 52.2004 25.1132C51.9434 25.676 51.7025 26.2709 52.2968 26.8659H43.6566C44.1865 26.2227 43.9456 25.6116 43.6566 24.9845C41.2958 19.9514 38.951 14.9182 36.5902 9.88505C36.4297 9.56344 36.1888 9.274 35.9639 8.95239H42.5003C41.9382 9.62776 42.1309 10.2549 42.436 10.882C44.2026 14.6127 45.9692 18.3433 47.7357 22.074C47.7839 22.1865 47.8643 22.283 47.9766 22.476C48.6351 21.1091 49.2615 19.8066 49.8878 18.5041C51.1083 15.8991 52.3288 13.2941 53.5494 10.7052C53.8063 10.1584 53.9026 9.59561 53.3727 8.98455Z" fill="#161515"/>
<path d="M9.68932 28.1365C5.96344 27.1877 1.80396 21.2541 2.17333 17.443C6.34889 16.7354 10.0748 17.7003 13.4312 20.4179C11.4398 22.6369 10.2032 25.1937 9.68932 28.1365Z" fill="#161515"/>
<path d="M11.4082 28.7957C11.9061 28.9244 12.3718 29.0209 12.8536 29.0851C13.1427 29.1174 13.4157 29.1496 13.7208 29.1656L13.8975 29.1817C14.6523 29.1817 15.4071 29.1978 16.1619 29.1174C21.5258 28.5706 25.9905 24.4702 27.0183 19.1475C27.1307 18.6007 27.1628 18.038 27.2271 17.4912C19.39 15.8993 12.2273 21.5756 11.4082 28.7957Z" fill="#161515"/>
<path d="M143.179 22.4438C141.878 22.4438 140.817 23.3927 140.817 24.5665C140.817 25.7404 141.878 26.6891 143.179 26.6891C144.479 26.6891 145.538 25.7404 145.538 24.5665C145.538 23.4087 144.479 22.4438 143.179 22.4438Z" fill="#161515"/>
</g>
<defs>
<clipPath id="clip0_88_1723">
<rect width="191.207" height="30.133" fill="white" transform="translate(0.792969 0.717529)"/>
</clipPath>
<clipPath id="clip1_88_1723">
<rect width="191.207" height="30.133" fill="white" transform="translate(0.792969 0.717529)"/>
</clipPath>
</defs>
</svg>
