<svg width="117" height="62" viewBox="0 0 117 62" fill="none" xmlns="http://www.w3.org/2000/svg">
<g clip-path="url(#clip0_88_1618)">
<mask id="mask0_88_1618" style="mask-type:luminance" maskUnits="userSpaceOnUse" x="0" y="0" width="118" height="62">
<path d="M117.731 0H0V62H117.731V0Z" fill="white"/>
</mask>
<g mask="url(#mask0_88_1618)">
<path d="M0.568359 20.4763H25.1059C27.3809 15.0106 31.1184 10.3606 35.9121 6.85266C41.5184 2.69213 48.2621 0.489502 55.2496 0.489502C62.2371 0.489502 68.8996 2.69213 74.5871 6.85266C79.3809 10.3606 83.1184 15.0921 85.3934 20.4763H109.85V61.429H0.568359V20.4763Z" stroke="#161515" stroke-width="0.8803"/>
</g>
<mask id="mask1_88_1618" style="mask-type:luminance" maskUnits="userSpaceOnUse" x="0" y="0" width="118" height="62">
<path d="M117.731 0H0V62H117.731V0Z" fill="white"/>
</mask>
<g mask="url(#mask1_88_1618)">
<path d="M0.568359 20.4763H25.1059C27.3809 15.0106 31.1184 10.3606 35.9121 6.85266C41.5184 2.69213 48.2621 0.489502 55.2496 0.489502C62.2371 0.489502 68.8996 2.69213 74.5871 6.85266C79.3809 10.3606 83.1184 15.0921 85.3934 20.4763H109.85V61.429H0.568359V20.4763Z" stroke="#161515" stroke-width="0.8805"/>
</g>
<path d="M50.6996 27.4921C49.9684 27.1658 49.0746 27.0842 48.3434 27.2474C48.3434 27.4921 48.6684 27.4921 48.7496 27.5737C49.3184 27.9 50.2121 27.9816 50.6996 27.4921ZM61.5059 27.0026C61.0996 27.0842 60.6121 27.1658 60.2871 27.4105C61.0996 27.7368 62.2371 27.9 62.9684 27.2474C63.0496 27.1658 63.0496 27.0842 62.9684 27.0026C62.5621 27.0026 61.9934 27.0026 61.5059 27.0026ZM59.2309 26.35C58.7434 26.6763 58.2559 27.1658 57.8496 27.6553V27.8184C58.1746 27.7368 58.3371 27.5737 58.5809 27.329C58.8246 27.0842 59.1496 26.7579 59.2309 26.35ZM51.5934 26.1868C51.6746 26.5132 51.8371 26.7579 51.9996 27.0026C52.3246 27.329 52.8121 27.9 53.3809 27.8184C52.8934 27.1658 52.1621 26.6763 51.5934 26.1868ZM45.4996 24.5553C45.8246 25.0447 46.3934 25.2895 46.9621 25.2895C47.1246 25.2079 47.3684 25.2895 47.4496 25.1263C46.7996 24.8816 46.1496 24.8 45.4996 24.5553ZM48.8309 24.4737C48.8309 24.8 48.9934 25.1263 49.1559 25.3711C49.3996 25.6158 49.4809 26.0237 49.8059 26.0237C49.8059 25.3711 49.3996 24.8 48.8309 24.4737ZM63.7809 24.9632C63.7809 24.9632 63.6996 25.0447 63.7809 25.1263C64.5121 25.2079 65.2434 24.8 65.7309 24.3105C65.0809 24.3921 64.4309 24.5553 63.7809 24.9632ZM45.8246 24.229L45.6621 24.3921C46.3121 24.6368 46.9621 24.8816 47.6934 24.9632C47.2871 24.3921 46.3934 24.4737 45.8246 24.229ZM63.7809 24.5553C64.4309 24.3921 65.1621 24.3105 65.6496 23.9026C64.9996 23.7395 64.2684 24.0658 63.7809 24.5553ZM62.5621 23.5763C61.9121 24.0658 61.3434 24.7184 61.0996 25.4526C61.0996 25.6974 60.9371 25.9421 61.0996 26.1053C61.9121 25.4526 62.5621 24.5553 62.5621 23.5763ZM41.2746 21.7C41.1121 21.8632 40.8684 21.7816 40.7059 21.8632C41.2746 22.4342 42.1684 22.5974 42.8996 22.5158C43.1434 22.4342 43.3871 22.4342 43.4684 22.2711C42.8996 21.9447 42.0059 21.8632 41.2746 21.7ZM67.9246 21.7C67.7621 21.7816 67.4371 21.7816 67.4371 22.0263C67.8434 22.2711 68.4121 22.3526 68.8996 22.2711C69.3871 22.1079 69.9559 21.9447 70.3621 21.6184C69.4684 21.4553 68.6559 21.6184 67.9246 21.7ZM41.8434 21.5368C42.2496 21.7 42.7371 21.8632 43.3059 21.9447C43.3871 21.9447 43.6309 21.9447 43.5496 21.7816C43.0621 21.4553 42.3309 21.4553 41.8434 21.5368ZM45.2559 21.4553L45.3371 21.7816C45.4996 22.1895 45.6621 22.5974 46.0684 22.8421C45.9059 22.4342 45.6621 21.8632 45.2559 21.4553ZM45.7434 21.4553V21.5368L46.3121 22.5974C46.3121 22.1895 46.1496 21.7816 45.7434 21.4553ZM67.5184 21.4553C67.4371 21.5368 67.5184 21.6184 67.5184 21.6184C68.0871 21.4553 68.7371 21.4553 69.2246 21.2921C68.7371 21.0474 68.0059 21.2105 67.5184 21.4553ZM65.9746 20.8842C65.4871 21.2921 65.2434 21.9447 65.0809 22.5158C65.4059 22.3526 65.5684 21.9447 65.8121 21.6184C65.9746 21.4553 66.1371 21.129 65.9746 20.8842ZM64.7559 22.3526C64.9184 22.2711 64.9996 22.1079 65.0809 22.0263C65.2434 21.6184 65.6496 21.2105 65.6496 20.8026C64.9996 21.129 64.6746 21.7 64.7559 22.3526ZM42.3309 20.4763C42.8996 21.0474 43.3871 21.5368 43.9559 21.7816L44.0371 21.7C43.8746 21.129 43.0621 20.5579 42.3309 20.4763ZM68.4934 20.3132H68.3309C67.7621 20.3947 67.0309 20.8842 66.8684 21.5368C67.4371 21.4553 67.8434 20.8026 68.4121 20.4763L68.4934 20.3132ZM39.1621 19.6605V19.7421C39.5684 20.0684 39.9746 20.7211 40.5434 20.5579C40.1371 20.2316 39.6496 19.8237 39.1621 19.6605ZM71.6621 19.579C71.2559 19.7421 70.7684 19.9053 70.4434 20.3132C70.4434 20.3947 70.5246 20.3947 70.6059 20.3947C71.1746 20.3947 71.6621 20.0684 71.9871 19.579C71.9059 19.4158 71.7434 19.579 71.6621 19.579ZM39.4871 19.4974C39.4871 19.7421 39.6496 19.4974 39.7309 19.579C40.2184 19.8237 40.7059 20.2316 41.2746 20.3947C41.4371 20.15 40.8684 19.9053 41.2746 19.8237C42.1684 20.3132 43.3059 20.2316 44.0371 21.2105C44.4434 21.6184 44.6871 22.2711 45.2559 22.5974C45.0121 21.8632 44.8496 21.0474 44.5246 20.2316H44.6871C45.5809 20.8026 46.7184 21.6184 46.8809 22.7605L47.0434 23.8211C47.4496 24.3105 48.0184 24.7184 48.5871 25.1263L48.6684 25.0447C48.5059 24.5553 48.3434 24.0658 48.0996 23.5763C48.5059 23.5763 48.8309 23.9026 49.0746 24.229C49.8871 24.8816 50.0496 25.8605 50.4559 26.6763C50.7809 27.1658 51.3496 27.329 51.9184 27.4921L51.9996 27.4105C51.6746 26.7579 51.1059 26.1868 51.0246 25.4526C51.1059 25.2895 51.2684 25.3711 51.3496 25.4526C52.1621 26.4316 53.1371 27.2474 54.1121 27.9816C54.2746 28.0632 54.5184 28.0632 54.6809 27.9816C54.9246 27.6553 54.2746 27.5737 54.2746 27.2474C54.3559 27.0842 54.5184 27.2474 54.6809 27.329C55.0871 27.5737 55.5746 27.9816 56.0621 27.5737C56.3059 27.4921 56.5496 27.0842 56.8746 27.329C56.7934 27.6553 56.0621 27.8184 56.4684 28.1447C57.4434 28.3079 57.9309 27.2474 58.5809 26.6763L60.0434 25.2895H60.2059C60.1246 26.1053 59.6371 26.8395 59.1496 27.5737C59.3934 27.7368 59.5559 27.4921 59.7996 27.4105C60.6934 27.2474 60.8559 26.2684 61.0996 25.5342C61.5059 24.6368 62.2371 23.7395 63.1309 23.0868C63.2121 23.0053 63.3746 23.0053 63.5371 23.0868C63.6996 23.3316 63.3746 23.5763 63.2934 23.8211C63.1309 24.1474 62.8871 24.5553 62.9684 24.9632C63.4559 24.5553 64.1059 24.0658 64.2684 23.4947C64.5934 22.679 64.5121 21.7 65.1621 21.0474L66.5434 19.8237C66.7059 19.8237 66.7871 19.9053 66.7871 20.0684L66.5434 21.5368C67.4371 20.3947 68.7371 20.2316 69.8746 19.4974C69.9559 19.4974 70.0371 19.4974 70.0371 19.579C69.8746 19.8237 69.7121 20.0684 69.7121 20.4763L69.7934 20.5579C70.6871 20.0684 71.4996 19.6605 72.4746 19.4158L72.7184 19.4974C72.6371 19.8237 72.2309 20.15 71.9059 20.3947C71.3371 20.9658 70.3621 20.6395 69.7121 21.0474C69.8746 21.3737 70.1996 21.2921 70.4434 21.3737C70.7684 21.4553 71.3371 21.2921 71.3371 21.7C70.3621 22.2711 69.3059 22.9237 68.0871 22.7605C67.5184 22.7605 66.7871 22.2711 66.2996 22.7605C65.8121 23.0053 65.3246 23.3316 64.9184 23.7395L65.0809 23.8211C65.8121 23.7395 66.5434 23.7395 67.2746 23.8211C67.3559 23.9026 67.2746 23.9842 67.1934 24.0658C66.0559 24.5553 65.1621 25.8605 63.6996 25.6974C63.3746 25.6974 62.9684 25.4526 62.7246 25.6974L61.5059 26.8395C61.5059 27.0026 61.6684 27.0026 61.7496 27.0026C62.5621 26.9211 63.3746 27.0842 64.1059 26.9211V27.0026C63.3746 27.9 62.3184 28.4711 61.0996 28.2263C60.5309 28.2263 59.9621 27.9 59.3934 27.9816C58.4996 28.3079 57.6871 28.7158 56.6309 28.4711C56.0621 28.4711 55.4121 28.2263 54.8434 28.4711C53.8684 28.5526 52.8934 28.5526 52.0809 28.1447C51.4309 27.8184 50.6996 28.3079 49.9684 28.3079C48.9121 28.3895 48.1809 27.8184 47.3684 27.329L47.4496 27.2474C48.2621 27.2474 48.9934 27.0026 49.8059 27.1658C49.8059 27.1658 49.8871 27.1658 49.8871 27.0842C49.2371 26.35 48.5871 25.5342 47.5309 25.779C46.2309 25.8605 45.1746 25.2079 44.3621 24.3105C44.4434 24.229 44.6059 24.1474 44.7684 24.1474C45.4184 24.0658 45.9059 24.3105 46.4746 24.229C46.5559 24.1474 46.3934 23.9842 46.3121 23.9026L44.6059 22.679C44.1184 22.5974 43.6309 22.9237 43.1434 22.9237C41.8434 23.1684 40.7059 22.5158 39.7309 21.9447C39.8121 21.7 40.0559 21.7816 40.2996 21.7C40.7871 21.7 41.2746 21.5368 41.6809 21.2921C41.4371 20.7211 40.6246 21.129 40.1371 20.9658C39.4059 20.3947 38.5934 19.9868 37.9434 19.3342C37.9434 19.2526 37.9434 19.2526 38.0246 19.2526C38.4309 19.1711 38.9996 19.2526 39.4871 19.4974Z" fill="#161515"/>
<path d="M56.55 25.0448H58.0937C58.0937 25.0448 58.0125 24.5553 57.7687 24.5553C57.4437 24.5553 56.55 25.0448 56.55 25.0448ZM53.0562 24.5553C52.8125 24.5553 52.7312 25.0448 52.7312 25.0448H54.275C54.1937 25.0448 53.3 24.5553 53.0562 24.5553ZM58.175 25.5342C58.2562 25.5342 58.3375 25.4527 58.3375 25.3711C58.3375 25.2895 58.2562 25.2079 58.175 25.2079H52.65C52.5687 25.2079 52.4875 25.2895 52.4875 25.3711C52.4875 25.4527 52.5687 25.5342 52.65 25.5342H58.175ZM59.15 18.6816C59.15 21.7816 57.9312 23.8211 57.9312 23.8211C59.6375 23.0869 60.2875 20.6395 60.2875 18.6816C59.8812 18.7632 59.5562 18.7632 59.15 18.6816ZM60.6125 18.6816C60.6125 18.6816 60.6125 20.8842 59.7187 22.7606C60.8562 21.7816 61.3437 20.15 61.425 18.6816C61.1812 18.7632 60.6125 18.6816 60.6125 18.6816ZM56.3062 24.4737C57.85 24.4737 58.9062 20.8842 58.9062 18.7632C58.5812 18.7632 57.85 18.7632 57.4437 18.7632C57.3625 18.7632 57.2812 22.5974 56.3062 24.4737ZM53.7062 18.7632C53.8687 20.6395 54.0312 22.5158 54.6812 24.0658C54.7625 24.3106 54.925 24.7185 55.4125 24.7185C55.8187 24.7185 55.9812 24.3921 56.1437 24.0658C56.7937 22.5158 56.9562 20.7211 57.1187 18.7632H53.7062ZM58.0125 16.8869C57.2812 16.3974 56.3875 16.0711 55.3312 16.0711C54.275 16.0711 53.3812 16.3974 52.65 16.8869H58.0125ZM55.1687 15.3369C55.4125 15.3369 55.575 15.1737 55.575 14.929C55.575 14.6842 55.4125 14.5211 55.1687 14.5211C54.925 14.5211 54.7625 14.6842 54.7625 14.929C54.7625 15.1737 55.0062 15.3369 55.1687 15.3369ZM50.4562 18.7632C50.4562 20.8027 51.1062 23.1685 52.8125 23.9027C52.8125 23.9027 51.5937 21.7816 51.5937 18.7632C51.1875 18.7632 50.9437 18.7632 50.4562 18.7632ZM49.3187 18.7632C49.4 20.15 49.9687 21.8632 51.025 22.8421C50.05 20.9658 50.1312 18.7632 50.1312 18.7632C50.1312 18.7632 49.5625 18.7632 49.3187 18.7632ZM53.3812 18.7632C52.975 18.7632 52.2437 18.7632 51.9187 18.7632C51.9187 20.8842 52.975 24.4737 54.5187 24.4737C53.4625 22.5974 53.3812 18.7632 53.3812 18.7632ZM63.5375 18.1921L62.3187 18.5185L61.9125 19.0895C61.75 19.8237 61.5062 20.5579 61.2625 21.2106L61.3437 21.3737C61.5062 21.4553 61.6687 21.2921 61.8312 21.2106C62.9687 20.6395 63.6187 19.4974 63.7812 18.3553C63.7812 18.2737 63.6187 18.1921 63.5375 18.1921ZM64.2687 17.2132C63.5375 17.4579 62.725 17.5395 61.9125 17.5395L61.75 17.7027C61.75 17.9474 61.5062 18.2737 61.75 18.4369C61.9937 18.4369 61.9937 18.1921 62.1562 18.1106L63.8625 17.8658C64.025 17.9474 64.1875 18.029 64.2687 18.1921C64.2687 19.579 63.375 20.8027 62.2375 21.5369C61.75 21.8632 60.8562 21.7 60.775 22.4342C61.5875 22.4342 62.1562 22.1079 62.8062 21.6185C64.1062 20.5579 64.675 19.1711 64.5937 17.6211C64.5125 17.4579 64.4312 17.2132 64.2687 17.2132ZM58.5 17.2132H52.4062L50.9437 18.2737H59.6375L58.5 17.2132ZM45.6625 16.7237C45.6625 16.9685 45.5812 17.2132 45.4187 17.2132C45.4187 17.4579 45.6625 17.4579 45.7437 17.5395C47.2875 18.4369 47.3687 20.15 48.75 21.0474C48.9937 21.2106 49.2375 21.4553 49.5625 21.3737C49.3187 20.5579 49.1562 19.8237 48.9125 19.0079L48.5062 18.6816C47.45 18.2737 46.9625 16.8053 45.6625 16.7237ZM55.575 15.8264C56.3875 15.9079 57.4437 16.0711 58.175 16.5606C59.0687 17.2132 59.8812 18.1106 60.9375 18.1106C61.2625 17.9474 61.2625 17.4579 61.5875 17.2948C62.6437 17.2948 63.5375 17.05 64.4312 16.8053C64.675 16.8053 64.8375 16.9685 64.9187 17.1316C65.1625 19.3342 63.8625 21.3737 61.9937 22.3527C61.425 22.679 60.775 22.679 60.125 22.9237C59.5562 23.4948 58.9062 23.9027 58.2562 24.3106C58.0125 24.8 58.7437 24.9632 58.7437 25.3711C58.7437 25.8606 57.7687 25.779 57.7687 25.779C57.7687 25.779 54.0312 25.779 52.325 25.779C52.1625 25.6974 51.9187 25.6158 51.8375 25.3711C51.8375 24.8816 52.65 24.8 52.4875 24.3106C51.5125 23.7395 50.5375 22.9237 49.8062 22.0264C48.6687 21.6185 47.45 20.7211 46.9625 19.579C46.5562 18.6 45.5812 17.7027 44.6875 17.2948C44.4437 16.8869 45.5 16.8053 45.0125 16.3974C45.2562 16.0711 45.7437 16.3158 45.9875 16.3974C46.9625 16.6421 47.6937 17.5395 48.3437 18.3553C48.6687 18.6816 48.75 18.2737 48.9937 18.1106C49.725 18.029 50.5375 17.9474 51.1062 17.5395C52.0812 16.479 53.3812 15.9895 54.7625 15.7448V15.5C54.5187 15.3369 54.3562 15.0921 54.3562 14.8474C54.3562 14.4395 54.6812 14.0316 55.1687 14.0316C55.575 14.0316 55.9812 14.3579 55.9812 14.8474C55.9812 15.1737 55.8187 15.4185 55.575 15.5V15.8264Z" fill="#161515"/>
<mask id="mask2_88_1618" style="mask-type:luminance" maskUnits="userSpaceOnUse" x="0" y="0" width="118" height="62">
<path d="M117.731 0H0V62H117.731V0Z" fill="white"/>
</mask>
<g mask="url(#mask2_88_1618)">
<path d="M0.568359 20.4763H25.1059C27.3809 15.0106 31.1184 10.3606 35.9121 6.85266C41.5184 2.69213 48.2621 0.489502 55.2496 0.489502C62.2371 0.489502 68.8996 2.69213 74.5871 6.85266C79.3809 10.3606 83.1184 15.0921 85.3934 20.4763H109.85V61.429H0.568359V20.4763Z" stroke="#161515" stroke-width="1.2452"/>
</g>
<mask id="mask3_88_1618" style="mask-type:luminance" maskUnits="userSpaceOnUse" x="0" y="0" width="118" height="62">
<path d="M117.731 0H0V62H117.731V0Z" fill="white"/>
</mask>
<g mask="url(#mask3_88_1618)">
<path d="M0.975 26.2684H29.1688H29.3312C32.2562 14.6842 42.7375 6.11841 55.1688 6.11841C67.6 6.11841 78.0813 14.6842 81.0875 26.2684H82.0625H109.525M0.40625 54.9842H109.525" stroke="#161515" stroke-width="3.4568"/>
</g>
<path d="M39.1627 56.2079H40.4627V57.1869H38.1064V52.7816H39.1627V56.2079Z" fill="#161515"/>
<path d="M44.5252 52.6184C43.3064 52.6184 42.1689 53.5974 42.1689 54.9026C42.1689 56.371 43.1439 57.35 44.5252 57.35C45.9064 57.35 46.8814 56.371 46.8814 54.9026C46.8814 53.5158 45.7439 52.6184 44.5252 52.6184ZM44.5252 53.7605C45.1752 53.7605 45.7439 54.3316 45.7439 54.9026C45.7439 55.6368 45.1752 56.2079 44.5252 56.2079C43.8752 56.2079 43.3064 55.6368 43.3064 54.9026C43.3877 54.25 43.8752 53.7605 44.5252 53.7605Z" fill="#161515"/>
<path d="M48.9941 52.7816H50.1316L52.0816 55.4737H52.1629V52.7816H53.2191V57.1869H52.1629L50.1316 54.4948V57.1869H48.9941V52.7816Z" fill="#161515"/>
<path d="M55.8184 57.1869H57.3621C58.4996 57.1869 59.4746 56.2079 59.4746 54.9843C59.4746 53.7606 58.4996 52.7816 57.3621 52.7816H55.8184V57.1869ZM56.8746 53.7606H57.1184C57.8496 53.7606 58.3371 54.1685 58.3371 54.9843C58.3371 55.8816 57.7684 56.2079 57.1184 56.2079H56.8746V53.7606Z" fill="#161515"/>
<path d="M63.5379 52.6184C62.3191 52.6184 61.1816 53.5974 61.1816 54.9026C61.1816 56.371 62.1566 57.35 63.5379 57.35C64.9191 57.35 65.8941 56.371 65.8941 54.9026C65.8941 53.5158 64.7566 52.6184 63.5379 52.6184ZM63.5379 53.7605C64.1879 53.7605 64.7566 54.3316 64.7566 54.9026C64.7566 55.6368 64.1879 56.2079 63.5379 56.2079C62.8879 56.2079 62.3191 55.6368 62.3191 54.9026C62.3191 54.25 62.8879 53.7605 63.5379 53.7605Z" fill="#161515"/>
<path d="M68.0059 52.7816H69.0621L71.0934 55.4737V52.7816H72.2309V57.1869H71.0934L69.0621 54.4948V57.1869H68.0059V52.7816Z" fill="#161515"/>
<path d="M52.0812 41.6053H48.9125L50.7812 37.2816L52.0812 41.6053ZM55.1688 46.4184H54.1125L50.9438 35.8948L51.4312 34.7526L55.1688 46.4184ZM57.2812 46.4184H56.55L52.1625 32.7132V32.6316H52H51.675H51.5937V32.7132L47.775 43.0737C46.7187 45.8474 46.475 46.3369 45.5812 46.5H45.5V46.5816V46.9079V47.0711H45.6625H48.9125H49.075V46.9079V46.5816V46.5H48.9937C48.2625 46.4184 47.775 45.8474 48.0187 45.1948C48.1 44.8684 48.1813 44.6237 48.5063 43.8079L48.8312 42.1763H52.4062L53.7875 46.4184H52.8125H52.65V46.5816V46.9079V47.0711H52.8125H57.4437H57.6063V46.9079V46.5816V46.4184H57.2812Z" fill="#161515"/>
<path d="M52.0812 41.6053H48.9125L50.7812 37.2816L52.0812 41.6053ZM55.1688 46.4184H54.1125L50.9438 35.8948L51.4312 34.7526L55.1688 46.4184ZM57.2812 46.4184H56.55L52.1625 32.7132V32.6316H52H51.675H51.5937V32.7132L47.775 43.0737C46.7187 45.8474 46.475 46.3369 45.5812 46.5H45.5V46.5816V46.9079V47.0711H45.6625H48.9125H49.075V46.9079V46.5816V46.5H48.9937C48.2625 46.4184 47.775 45.8474 48.0187 45.1948C48.1 44.8684 48.1813 44.6237 48.5063 43.8079L48.8312 42.1763H52.4062L53.7875 46.4184H52.8125H52.65V46.5816V46.9079V47.0711H52.8125H57.4437H57.6063V46.9079V46.5816V46.4184H57.2812Z" stroke="#161515" stroke-width="0.1031"/>
<path d="M52.2441 33.529L47.4504 46.5L46.5566 46.1737L51.3504 33.2026L52.2441 33.529Z" fill="#161515"/>
<path d="M52.4871 42.3395H48.9121V41.5237H52.4871V42.3395Z" fill="#161515"/>
<path d="M55.0873 46.9078L51.2686 34.8342L52.6498 34.4263L56.4686 46.5L55.0873 46.9078Z" fill="#161515"/>
<path d="M53.7064 46.7448L50.2939 36.1395L51.0252 35.8948L54.3564 46.5816L53.7064 46.7448Z" fill="#161515"/>
<path d="M101.4 41.5237H98.2316L100.1 37.2L101.4 41.5237ZM104.488 46.4184H103.432L100.263 35.9763L100.75 34.8342L104.488 46.4184ZM106.6 46.4184H105.869L101.482 32.7132V32.6316H101.4H101.075H100.994V32.7132L97.1754 43.0737C96.1191 45.8474 95.8754 46.2553 94.9816 46.5H94.9004V46.5816V46.9079V47.0711H95.0629H98.3129H98.4754V46.9079V46.5816V46.5H98.3941C97.6629 46.4184 97.1754 45.8474 97.4191 45.1948C97.5004 44.8684 97.5816 44.6237 97.8254 43.8079L98.1504 42.1763H101.725L103.107 46.4184H102.132H101.969V46.5816V46.9079V47.0711H102.132H106.763H106.925V46.9079V46.5816V46.4184H106.6Z" fill="#161515"/>
<path d="M101.4 41.5237H98.2316L100.1 37.2L101.4 41.5237ZM104.488 46.4184H103.432L100.263 35.9763L100.75 34.8342L104.488 46.4184ZM106.6 46.4184H105.869L101.482 32.7132V32.6316H101.4H101.075H100.994V32.7132L97.1754 43.0737C96.1191 45.8474 95.8754 46.2553 94.9816 46.5H94.9004V46.5816V46.9079V47.0711H95.0629H98.3129H98.4754V46.9079V46.5816V46.5H98.3941C97.6629 46.4184 97.1754 45.8474 97.4191 45.1948C97.5004 44.8684 97.5816 44.6237 97.8254 43.8079L98.1504 42.1763H101.725L103.107 46.4184H102.132H101.969V46.5816V46.9079V47.0711H102.132H106.763H106.925V46.9079V46.5816V46.4184H106.6Z" stroke="#161515" stroke-width="0.1031"/>
<path d="M101.562 33.529L96.7687 46.5L95.875 46.1737L100.669 33.2026L101.562 33.529Z" fill="#161515"/>
<path d="M101.888 42.3395H98.2314V41.5237H101.888V42.3395Z" fill="#161515"/>
<path d="M104.407 46.9078L100.588 34.8342L101.969 34.4263L105.869 46.5L104.407 46.9078Z" fill="#161515"/>
<path d="M103.025 46.7448L99.6123 36.1395L100.344 35.8948L103.675 46.5L103.025 46.7448Z" fill="#161515"/>
<path d="M10.6438 41.6052H7.475L9.34375 37.2816L10.6438 41.6052ZM13.7312 46.5H12.675L9.50625 35.9763L9.99375 34.8342L13.7312 46.5ZM15.8438 46.5H15.1125L10.725 32.7947V32.7131H10.5625H10.2375H10.1562V32.7947L6.3375 43.0737C5.28125 45.8473 5.0375 46.3368 4.14375 46.5H4.0625V46.5816V46.9079V47.071H4.225H7.475H7.6375V46.9079V46.5816V46.5H7.55625C6.825 46.4184 6.3375 45.8473 6.58125 45.1947C6.6625 44.8684 6.74375 44.6237 6.9875 43.8079L7.3125 42.1763H10.8875L12.1875 46.5H11.2125H11.05V46.6631V46.9895V47.1526H11.2125H15.8438H16.0063V46.9895V46.6631V46.5H15.8438Z" fill="#161515"/>
<path d="M10.6438 41.6052H7.475L9.34375 37.2816L10.6438 41.6052ZM13.7312 46.5H12.675L9.50625 35.9763L9.99375 34.8342L13.7312 46.5ZM15.8438 46.5H15.1125L10.725 32.7947V32.7131H10.5625H10.2375H10.1562V32.7947L6.3375 43.0737C5.28125 45.8473 5.0375 46.3368 4.14375 46.5H4.0625V46.5816V46.9079V47.071H4.225H7.475H7.6375V46.9079V46.5816V46.5H7.55625C6.825 46.4184 6.3375 45.8473 6.58125 45.1947C6.6625 44.8684 6.74375 44.6237 6.9875 43.8079L7.3125 42.1763H10.8875L12.1875 46.5H11.2125H11.05V46.6631V46.9895V47.1526H11.2125H15.8438H16.0063V46.9895V46.6631V46.5H15.8438Z" stroke="#161515" stroke-width="0.1031"/>
<path d="M10.8066 33.529L6.01289 46.5L5.11914 46.1737L9.91289 33.2026L10.8066 33.529Z" fill="#161515"/>
<path d="M11.1309 42.3395H7.47461V41.5237H11.1309V42.3395Z" fill="#161515"/>
<path d="M13.6498 46.9894L9.83105 34.9157L11.2936 34.4263L15.1123 46.5L13.6498 46.9894Z" fill="#161515"/>
<path d="M12.2689 46.8264L8.85645 36.1395L9.5877 35.8948L13.0002 46.5816L12.2689 46.8264Z" fill="#161515"/>
<path d="M19.7441 33.3658V46.4184H18.9316V33.3658H19.7441ZM26.7316 33.3658V46.4184H25.9191V33.3658H26.7316ZM29.0879 32.7947H24.5379H24.3754V32.9579V33.2842V33.4473H24.5379H25.2691V39.4842H21.2879V33.4473H22.1004H22.1816V33.2842V32.9579V32.7947H22.1004H17.4691H17.3066V32.9579V33.2842V33.4473H17.4691H18.2004V46.5H17.5504H17.3879V46.6631V46.9895V47.1526H17.5504H22.1004H22.2629V46.9895V46.6631V46.5H22.1004H21.2879V39.9737H25.2691V46.5H24.2129H24.0504V46.5816V46.9079V47.071H24.2129H29.4941H29.5754V46.9079V46.5816V46.5L29.4941 46.8263H28.4379V33.3658H29.1691H29.2504V33.2026V32.8763V32.7131H29.0879V32.7947Z" fill="#161515"/>
<path d="M19.7441 33.3658V46.4184H18.9316V33.3658H19.7441ZM26.7316 33.3658V46.4184H25.9191V33.3658H26.7316ZM29.0879 32.7947H24.5379H24.3754V32.9579V33.2842V33.4473H24.5379H25.2691V39.4842H21.2879V33.4473H22.1004H22.1816V33.2842V32.9579V32.7947H22.1004H17.4691H17.3066V32.9579V33.2842V33.4473H17.4691H18.2004V46.5H17.5504H17.3879V46.6631V46.9895V47.1526H17.5504H22.1004H22.2629V46.9895V46.6631V46.5H22.1004H21.2879V39.9737H25.2691V46.5H24.2129H24.0504V46.5816V46.9079V47.071H24.2129H29.4941H29.5754V46.9079V46.5816V46.5L29.4941 46.8263H28.4379V33.3658H29.1691H29.2504V33.2026V32.8763V32.7131H29.0879V32.7947Z" stroke="#161515" stroke-width="0.103"/>
<path d="M21.3687 46.8263H19.5V33.2842H21.3687V46.8263Z" fill="#161515"/>
<path d="M28.4371 46.8263H26.5684V33.2842H28.4371V46.8263Z" fill="#161515"/>
<path d="M29.6561 47.1527H24.0498V46.4185H29.6561V47.1527Z" fill="#161515"/>
<path d="M22.5877 47.1527H16.9814V46.4185H22.5877V47.1527Z" fill="#161515"/>
<path d="M29.6561 33.4473H24.0498V32.7131H29.6561V33.4473Z" fill="#161515"/>
<path d="M22.5877 33.4473H16.9814V32.7131H22.5877V33.4473Z" fill="#161515"/>
<path d="M25.5129 40.2184H20.5566V39.321H25.5129V40.2184Z" fill="#161515"/>
<path d="M37.1314 44.4605C36.4814 42.6658 33.3939 34.7526 33.3939 34.7526C33.0689 34.0184 32.9064 33.6105 32.6627 33.3658H33.6377L37.4564 43.4L37.1314 44.4605ZM41.7627 33.3658L41.8439 46.4184H41.1127V35.4052L41.7627 33.3658ZM33.4752 36.6289L33.7189 37.2816L36.8877 45.521V45.6026H36.9689H37.2127H37.3752V45.521L40.3814 37.0368V46.5H39.3252H39.1627V46.6631V46.9895V47.1526H39.3252H44.2814H44.4439V46.9895V46.6631V46.5H44.2814H43.2252V35.4052C43.2252 33.6921 43.3877 33.4473 44.2814 33.3658H44.4439V33.2026V32.8763V32.7131H44.2814H41.4377H41.3564V32.7947L38.3502 41.2789L35.1002 32.7947V32.7131H34.9377H31.3627H31.2002V32.8763V33.2026V33.3658H31.3627C32.0939 33.3658 32.3377 33.6921 32.7439 34.5079" fill="#161515"/>
<path d="M33.4752 36.6289L33.7189 37.2816L36.8877 45.521V45.6026H36.9689H37.2127H37.3752V45.521L40.3814 37.0368V46.5H39.3252H39.1627V46.6631V46.9895V47.1526H39.3252H44.2814H44.4439V46.9895V46.6631V46.5H44.2814H43.2252V35.4052C43.2252 33.6921 43.3877 33.4473 44.2814 33.3658H44.4439V33.2026V32.8763V32.7131H44.2814H41.4377H41.3564V32.7947L38.3502 41.2789L35.1002 32.7947V32.7131H34.9377H31.3627H31.2002V32.8763V33.2026V33.3658H31.3627C32.0939 33.3658 32.3377 33.6921 32.7439 34.5079M37.1314 44.4605C36.4814 42.6658 33.3939 34.7526 33.3939 34.7526C33.0689 34.0184 32.9064 33.6105 32.6627 33.3658H33.6377L37.4564 43.4L37.1314 44.4605ZM41.7627 33.3658L41.8439 46.4184H41.1127V35.4052L41.7627 33.3658Z" stroke="#161515" stroke-width="0.103"/>
<path d="M32.7436 42.7473C32.6623 43.971 32.7436 45.1131 32.4998 45.6026C32.3373 46.0105 32.0936 46.2552 31.4436 46.4184H31.3623V46.5V46.8263V46.9894H31.5248H35.0186H35.1811V46.8263V46.5V46.3368H35.0998C33.9623 46.1736 33.6373 45.7658 33.6373 42.7473V36.0579" fill="#161515"/>
<path d="M32.7436 42.7473C32.6623 43.971 32.7436 45.1131 32.4998 45.6026C32.3373 46.0105 32.0936 46.2552 31.4436 46.4184H31.3623V46.5V46.8263V46.9894H31.5248H35.0186H35.1811V46.8263V46.5V46.3368H35.0998C33.9623 46.1736 33.6373 45.7658 33.6373 42.7473V36.0579" stroke="#161515" stroke-width="0.103"/>
<path d="M32.6621 34.5079L32.9059 35.2421V42.829" fill="#161515"/>
<path d="M32.6621 34.5079L32.9059 35.2421V42.829" stroke="#161515" stroke-width="0.103"/>
<path d="M32.6621 34.5895L33.5559 35.1605V46.3368H32.6621V34.5895Z" fill="#161515"/>
<path d="M41.6816 33.2026H43.3879V46.6632H41.6816V33.2026Z" fill="#161515"/>
<path d="M33.4746 33.3658L35.0184 32.7131L38.6746 42.0947L37.4559 43.7263L33.4746 33.3658Z" fill="#161515"/>
<path d="M66.1379 45.7658C66.8691 44.6237 67.2754 42.7473 67.2754 39.8105C67.2754 37.2 66.9504 35.4052 66.3004 34.2631C66.5441 34.5079 66.7879 34.8342 67.0316 35.1605C67.6816 36.221 68.0879 38.0973 68.0879 39.9737C68.0879 42.6658 67.3566 44.7868 66.1379 45.7658ZM63.1316 46.5H62.3191V33.4473H63.2129C64.5941 33.4473 65.1629 33.6921 65.6504 34.4263C66.3816 35.4868 66.7066 37.2816 66.7066 39.8921C66.7066 42.1763 66.4629 43.8895 65.9754 45.0316C65.4066 46.0921 64.6754 46.5 63.1316 46.5ZM60.8566 33.3658V46.4184H60.1254V33.3658H60.8566ZM67.3566 33.9368C66.4629 33.0395 65.5691 32.7131 63.7004 32.7131H58.5004H58.3379V32.8763V33.2026V33.3658H58.5004H59.4754V46.4184H58.5004H58.3379V46.5816V46.9079V47.071H58.5004H63.3754C65.0816 47.071 65.9754 46.9079 66.8691 46.2552C68.5754 45.1131 69.6316 42.5842 69.6316 39.8105C69.6316 37.4447 68.7379 35.3237 67.3566 33.9368Z" fill="#161515"/>
<path d="M66.1379 45.7658C66.8691 44.6237 67.2754 42.7473 67.2754 39.8105C67.2754 37.2 66.9504 35.4052 66.3004 34.2631C66.5441 34.5079 66.7879 34.8342 67.0316 35.1605C67.6816 36.221 68.0879 38.0973 68.0879 39.9737C68.0879 42.6658 67.3566 44.7868 66.1379 45.7658ZM63.1316 46.5H62.3191V33.4473H63.2129C64.5941 33.4473 65.1629 33.6921 65.6504 34.4263C66.3816 35.4868 66.7066 37.2816 66.7066 39.8921C66.7066 42.1763 66.4629 43.8895 65.9754 45.0316C65.4066 46.0921 64.6754 46.5 63.1316 46.5ZM60.8566 33.3658V46.4184H60.1254V33.3658H60.8566ZM67.3566 33.9368C66.4629 33.0395 65.5691 32.7131 63.7004 32.7131H58.5004H58.3379V32.8763V33.2026V33.3658H58.5004H59.4754V46.4184H58.5004H58.3379V46.5816V46.9079V47.071H58.5004H63.3754C65.0816 47.071 65.9754 46.9079 66.8691 46.2552C68.5754 45.1131 69.6316 42.5842 69.6316 39.8105C69.6316 37.4447 68.7379 35.3237 67.3566 33.9368Z" stroke="#161515" stroke-width="0.1031"/>
<path d="M62.3186 46.7447H60.6123V33.2842H62.3186V46.7447Z" fill="#161515"/>
<path d="M78.8936 33.4473V46.4999H78.0811V33.4473H78.8936ZM83.9311 36.792V32.9578V32.7947H83.7686H74.1811H74.0186V32.9578L74.0998 36.792V36.9552H74.2623H74.5873H74.7498V36.792V36.0578C74.7498 34.1815 75.5623 33.3657 77.4311 33.3657V46.4184H75.9686H75.8061V46.5815V46.9078V47.071H75.9686H82.0623H82.2248V46.9078V46.5815V46.4999H82.0623H80.5998V33.4473C81.4936 33.4473 82.1436 33.6105 82.6311 34.0184C83.1186 34.4263 83.2811 35.1605 83.2811 36.1394V36.8736V37.0368H83.4436H83.7686H83.9311V36.792Z" fill="#161515"/>
<path d="M78.8936 33.4473V46.4999H78.0811V33.4473H78.8936ZM83.9311 36.792V32.9578V32.7947H83.7686H74.1811H74.0186V32.9578L74.0998 36.792V36.9552H74.2623H74.5873H74.7498V36.792V36.0578C74.7498 34.1815 75.5623 33.3657 77.4311 33.3657V46.4184H75.9686H75.8061V46.5815V46.9078V47.071H75.9686H82.0623H82.2248V46.9078V46.5815V46.4999H82.0623H80.5998V33.4473C81.4936 33.4473 82.1436 33.6105 82.6311 34.0184C83.1186 34.4263 83.2811 35.1605 83.2811 36.1394V36.8736V37.0368H83.4436H83.7686H83.9311V36.792Z" stroke="#161515" stroke-width="0.103"/>
<path d="M74.0186 32.7947H74.7498V36.9552H74.0186V32.7947Z" fill="#161515"/>
<path d="M83.2002 32.7947H84.0127V36.9552H83.2002V32.7947Z" fill="#161515"/>
<path d="M78.6504 33.2842H79.3004V46.8263H78.6504V33.2842Z" fill="#161515"/>
<path d="M87.7504 33.4473V46.4999H86.9379V33.4473H87.7504ZM93.9254 43.6447H93.6004H93.4379V43.8078C93.4379 44.9499 93.3566 45.4394 93.0316 45.7657C92.5441 46.2552 91.7316 46.4999 90.1066 46.4999H89.2941V39.9736H89.9441C90.8379 39.9736 91.4066 40.0552 91.6504 40.2999C91.8941 40.5447 91.8941 40.871 91.8941 41.6052V42.3394V42.421H92.0566H92.3816H92.5441V42.2578V37.2815V37.1184H92.3816H92.0566H91.8941V37.2815V37.6078V38.0973C91.8941 38.5052 91.8129 38.7499 91.6504 38.9947C91.4066 39.2394 90.8379 39.4026 89.9441 39.4026H89.2129V33.3657H89.8629C91.3254 33.3657 92.2191 33.6105 92.7879 34.0184C93.2754 34.4263 93.4379 34.7526 93.4379 36.221V36.4657V36.7105H93.6004H93.9254H94.0879V36.5473V32.9578V32.7947H93.9254H85.3129H85.1504V32.9578V33.2842V33.4473H85.3129H86.3691V46.4999H85.3129H85.1504V46.6631V46.9894V47.1526H85.3129H93.9254H94.0879V46.9894V43.8894V43.7263H93.9254V43.6447Z" fill="#161515"/>
<path d="M87.7504 33.4473V46.4999H86.9379V33.4473H87.7504ZM93.9254 43.6447H93.6004H93.4379V43.8078C93.4379 44.9499 93.3566 45.4394 93.0316 45.7657C92.5441 46.2552 91.7316 46.4999 90.1066 46.4999H89.2941V39.9736H89.9441C90.8379 39.9736 91.4066 40.0552 91.6504 40.2999C91.8941 40.5447 91.8941 40.871 91.8941 41.6052V42.3394V42.421H92.0566H92.3816H92.5441V42.2578V37.2815V37.1184H92.3816H92.0566H91.8941V37.2815V37.6078V38.0973C91.8941 38.5052 91.8129 38.7499 91.6504 38.9947C91.4066 39.2394 90.8379 39.4026 89.9441 39.4026H89.2129V33.3657H89.8629C91.3254 33.3657 92.2191 33.6105 92.7879 34.0184C93.2754 34.4263 93.4379 34.7526 93.4379 36.221V36.4657V36.7105H93.6004H93.9254H94.0879V36.5473V32.9578V32.7947H93.9254H85.3129H85.1504V32.9578V33.2842V33.4473H85.3129H86.3691V46.4999H85.3129H85.1504V46.6631V46.9894V47.1526H85.3129H93.9254H94.0879V46.9894V43.8894V43.7263H93.9254V43.6447Z" stroke="#161515" stroke-width="0.103"/>
<path d="M89.2129 46.5815H87.5879V33.2842H89.2129V46.5815Z" fill="#161515"/>
</g>
<defs>
<clipPath id="clip0_88_1618">
<rect width="117" height="62" fill="white"/>
</clipPath>
</defs>
</svg>
