<svg width="125" height="61" viewBox="0 0 125 61" fill="none" xmlns="http://www.w3.org/2000/svg">
<path d="M44.7498 28.7785C45.4663 27.6741 46.5085 26.3749 48.9837 26.3749C52.1104 26.3749 54.8462 28.7785 54.8462 33.6507C54.8462 37.4835 53.0874 41.1214 48.9186 41.1214C46.3131 41.1214 45.4012 39.6922 45.0103 38.9776H44.9452V46.3834H41.2975V26.7646H44.8149V28.7785H44.7498ZM66.571 36.1842H66.7013L70.0233 26.6997H75.6903V40.6667H71.782V32.0916C71.782 31.312 71.9123 30.4675 71.9123 30.4675H71.782L68.1343 40.6667H65.138L61.4902 30.4675H61.36C61.36 30.4675 61.4902 31.377 61.4902 32.0916V40.6667H57.582V26.6997H63.1838L66.571 36.1842ZM38.1708 38.0032V30.4026C38.1708 26.9595 34.3928 26.3749 32.3736 26.3749C29.5075 26.3749 26.5763 26.8946 25.9249 30.7274H29.6378C29.8332 30.0128 30.3543 29.2982 31.9176 29.2982C32.8947 29.2982 34.458 29.3632 34.458 30.9223C34.458 31.5719 33.8717 32.0266 32.2433 32.1566C28.5304 32.4814 25.4038 33.7806 25.4038 37.0288C25.4038 39.8871 27.6185 41.1214 29.8332 41.1214C32.4387 41.1214 33.6763 39.9521 34.5883 39.1076C34.6534 39.8871 34.7185 40.082 34.9139 40.7966H39.0176V40.2119C38.5617 40.017 38.1708 39.6273 38.1708 38.0032ZM34.458 35.7295C34.458 37.4185 32.6993 38.4579 31.0057 38.4579C30.224 38.4579 29.1818 38.0682 29.1818 36.7689C29.1818 35.2748 30.3543 34.885 31.7873 34.6901C33.3506 34.4302 34.002 34.2354 34.3928 33.9105V35.7295H34.458ZM90.9326 38.0032V30.4026C90.9326 26.9595 87.1546 26.3749 85.1353 26.3749C82.2692 26.3749 79.338 26.8946 78.6867 30.7274H82.3995C82.5949 30.0128 83.116 29.2982 84.6793 29.2982C85.6564 29.2982 87.2197 29.3632 87.2197 30.9223C87.2197 31.5719 86.6335 32.0266 85.005 32.1566C81.2922 32.4814 78.1656 33.7806 78.1656 37.0288C78.1656 39.8871 80.3802 41.1214 82.5949 41.1214C85.2005 41.1214 86.4381 39.9521 87.35 39.1076C87.4151 39.8871 87.4803 40.082 87.6757 40.7966H91.7794V40.2119C91.3234 40.017 90.9326 39.6273 90.9326 38.0032ZM87.2197 35.7295C87.2197 37.4185 85.461 38.4579 83.8326 38.4579C83.0509 38.4579 82.0087 38.0682 82.0087 36.7689C82.0087 35.2748 83.1812 34.885 84.6142 34.6901C86.1775 34.4302 86.8289 34.2354 87.2197 33.9105V35.7295ZM13.9395 22.2822C17.5872 22.2822 23.8405 24.2311 23.8405 30.4675C23.8405 36.7039 17.6524 38.5229 13.9395 38.5229V40.7316H9.83583V38.5229C6.25324 38.5229 0 36.7039 0 30.4675C0 24.2311 6.25324 22.2822 9.90097 22.2822V20.2034H14.0047V22.2822H13.9395ZM9.90097 35.0799V25.7252C7.68628 25.7252 4.29911 26.5698 4.29911 30.4675C4.29911 34.3003 7.68628 35.0799 9.90097 35.0799ZM13.9395 25.7252V35.0799C16.0891 35.0799 19.5414 34.3003 19.5414 30.4675C19.5414 26.5698 16.1542 25.7252 13.9395 25.7252ZM97.5767 9.74441C110.8 9.74441 121.547 20.4633 121.547 33.6507C121.547 38.9776 119.789 43.8498 116.857 47.8126L101.615 33.6507L109.627 22.9318H105.133L97.5767 33.131V9.74441ZM97.5767 6.30138V0H93.9289V6.56124C84.2234 7.86049 76.0811 14.2918 72.3683 22.9318H76.2114C79.6637 16.1757 86.1775 11.2386 93.9289 10.0692V40.7966H97.5767V34.4952L114.578 50.541C110.213 54.8935 104.221 57.557 97.6418 57.557C88.2619 57.557 80.1848 52.1651 76.2114 44.3695H72.3031C76.472 54.1789 86.2427 61 97.5767 61C105.198 61 112.102 57.8818 117.053 52.8797L119.724 55.4132H125L119.398 50.1512C122.915 45.5389 125 39.8222 125 33.5857C125.065 18.5793 112.754 6.30138 97.5767 6.30138ZM44.7498 33.8456C44.7498 35.5346 45.4012 38.0682 47.8113 38.0682C50.1562 38.0682 51.0682 36.1193 51.0682 34.0405C51.0682 31.8317 50.4168 29.558 47.9415 29.558C45.5314 29.558 44.7498 31.6368 44.7498 33.8456Z" fill="#161515"/>
</svg>
