<svg width="197" height="30" viewBox="0 0 197 30" fill="none" xmlns="http://www.w3.org/2000/svg">
<g clip-path="url(#clip0_88_1773)">
<mask id="mask0_88_1773" style="mask-type:luminance" maskUnits="userSpaceOnUse" x="0" y="0" width="197" height="30">
<path d="M197 0H0V30H197V0Z" fill="white"/>
</mask>
<g mask="url(#mask0_88_1773)">
<path fill-rule="evenodd" clip-rule="evenodd" d="M61.3353 10.7256H55.0164V7.75617H65.2498C65.3345 8.18343 65.3771 8.63204 65.3771 9.10204C65.3771 13.5669 62.7178 16.9423 55.442 16.9423C48.1661 16.9423 45.5068 13.5669 45.5068 9.10204C45.5068 4.63713 48.1661 1.26172 55.442 1.26172C61.3353 1.26172 64.1859 3.4835 65.0581 6.688H60.8456C60.1011 5.38482 58.4417 4.5303 55.442 4.5303C50.6977 4.5303 49.3363 6.41026 49.3363 9.10204C49.3363 11.7938 50.6977 13.6738 55.442 13.6738C59.1437 13.6738 60.782 12.5201 61.3353 10.7256ZM67.835 1.6249H78.0469C83.0255 1.6249 85.0038 3.78258 85.0038 7.17934C85.0038 9.52926 84.0679 11.2811 81.8338 12.1356L85.2166 16.5792H81.0677L78.1535 12.7338H71.6644V16.5792H67.835V1.6249ZM71.6644 9.48656H78.0469C80.3657 9.48656 81.1744 8.61069 81.1744 7.17934C81.1744 5.76939 80.3657 4.89348 78.0469 4.89348H71.6644V9.48656ZM96.4952 1.26172C103.771 1.26172 106.431 4.61574 106.431 9.08065C106.431 13.5456 103.771 16.921 96.4952 16.921C89.2198 16.921 86.5601 13.5456 86.5601 9.08065C86.5601 4.61574 89.2198 1.26172 96.4952 1.26172ZM96.4952 13.2252C101.24 13.2252 102.601 11.516 102.601 9.08065C102.601 6.66661 101.24 4.93621 96.4952 4.93621C91.7509 4.93621 90.3895 6.66661 90.3895 9.08065C90.3895 11.516 91.7509 13.2252 96.4952 13.2252ZM123.109 1.6249L127.385 11.9433L131.3 1.6249H135.278L129.704 16.5792H125.279L120.96 6.17526L116.642 16.5792H112.217L106.643 1.6249H110.621L114.536 11.9433L118.812 1.6249H123.109ZM143.56 5.29939H136.454V1.6249H154.474V5.29939H147.39V16.5792H143.56V5.29939ZM160.336 7.32887H170.698V1.6249H174.527V16.5792H170.698V10.8752H160.336V16.5792H156.507V1.6249H160.336V7.32887ZM186.444 8.88839L192.359 1.6249H196.656L188.359 12.0288V16.5792H184.53V12.0288L176.232 1.6249H180.509L186.444 8.88839Z" fill="#161515"/>
<path fill-rule="evenodd" clip-rule="evenodd" d="M18.5455 4.6591C22.5446 6.1124 25.6502 9.87166 25.6437 14.7356C25.6437 14.7572 25.6515 14.7706 25.6675 14.776C25.6733 14.7782 25.6802 14.7792 25.6882 14.7792L29.3951 14.7766C29.4259 14.7766 29.4409 14.7616 29.4419 14.7307C29.5018 10.3622 27.4288 6.12753 24.0235 3.41257C22.7087 2.36433 21.2986 1.57407 19.793 1.04188C18.2458 0.494797 16.5978 0.220304 14.8493 0.218516C6.67015 0.208821 0.0667326 7.02705 0.339194 15.2178C0.544132 21.3841 4.51982 26.5221 10.0367 28.4713C11.5461 29.0048 13.171 29.2995 14.8656 29.3112C14.893 29.3112 14.907 29.2971 14.907 29.2698L14.9132 25.5817C14.9132 25.5683 14.9081 25.5552 14.8989 25.5456C14.893 25.5395 14.886 25.535 14.8783 25.5324C14.8732 25.5305 14.8679 25.5294 14.8625 25.5292C13.5679 25.4819 12.3678 25.2631 11.2624 24.8726C9.42363 24.223 7.84667 23.0986 6.53129 21.4996C2.45583 16.5431 3.75994 9.06375 9.16336 5.66827C12.1459 3.79435 15.516 3.59659 18.4281 4.61718C18.4673 4.63092 18.5064 4.64488 18.5455 4.6591Z" fill="#161515"/>
<path fill-rule="evenodd" clip-rule="evenodd" d="M48.2626 27.6291H50.4875C50.2927 28.261 49.7158 28.6672 48.4122 28.6672C46.7419 28.6672 46.2624 28.0053 46.2624 27.0574C46.2624 26.1096 46.7419 25.4477 48.4122 25.4477C49.4688 25.4477 50.0532 25.7486 50.3151 26.2074H51.7985C51.4914 25.0791 50.4875 24.2968 48.4122 24.2968C45.8504 24.2968 44.9141 25.4853 44.9141 27.0574C44.9141 28.6296 45.8504 29.8181 48.4122 29.8181C50.9746 29.8181 51.9109 28.6296 51.9109 27.0574C51.9109 26.892 51.8959 26.734 51.8657 26.5835H48.2626V27.6291ZM56.3721 24.4247H52.7761V29.6902H54.1248V28.3362H56.4094L57.4356 29.6902H58.8962L57.7055 28.1256C58.4921 27.8248 58.8217 27.2079 58.8217 26.3804C58.8217 25.1844 58.1249 24.4247 56.3721 24.4247ZM56.3721 27.1928H54.1248V25.5755H56.3721C57.1886 25.5755 57.4734 25.884 57.4734 26.3804C57.4734 26.8844 57.1886 27.1928 56.3721 27.1928ZM66.366 27.05C66.366 25.4778 65.4297 24.2968 62.8678 24.2968C60.306 24.2968 59.3697 25.4778 59.3697 27.05C59.3697 28.6221 60.306 29.8106 62.8678 29.8106C65.4297 29.8106 66.366 28.6221 66.366 27.05ZM65.0177 27.05C65.0177 27.9074 64.5386 28.5093 62.8678 28.5093C61.1975 28.5093 60.7179 27.9074 60.7179 27.05C60.7179 26.1999 61.1975 25.5906 62.8678 25.5906C64.5386 25.5906 65.0177 26.1999 65.0177 27.05ZM73.7445 28.0579L72.2387 24.4247H70.7259L69.2201 28.0579L67.8415 24.4247H66.441L68.4036 29.6902H69.9616L71.4823 26.0269L73.003 29.6902H74.561L76.524 24.4247H75.1231L73.7445 28.0579ZM76.9378 25.7185H79.44V29.6902H80.7882V25.7185H83.283V24.4247H76.9378V25.7185ZM88.9956 26.4331H85.3473V24.4247H83.9986V29.6902H85.3473V27.6818H88.9956V29.6902H90.3438V24.4247H88.9956V26.4331ZM97.6109 24.4247H94.2847V29.6902H97.6109C99.7981 29.6902 100.779 28.6296 100.779 27.0574C100.779 25.4853 99.7981 24.4247 97.6109 24.4247ZM97.6109 28.3889H95.633V25.7185H97.6109C98.9816 25.7185 99.4309 26.2601 99.4309 27.0574C99.4309 27.8473 98.9816 28.3889 97.6109 28.3889ZM101.651 29.6902H103V24.4247H101.651V29.6902ZM107.226 27.6291H109.45C109.255 28.261 108.678 28.6672 107.375 28.6672C105.705 28.6672 105.225 28.0053 105.225 27.0574C105.225 26.1096 105.705 25.4477 107.375 25.4477C108.432 25.4477 109.016 25.7486 109.278 26.2074H110.761C110.454 25.0791 109.45 24.2968 107.375 24.2968C104.814 24.2968 103.877 25.4853 103.877 27.0574C103.877 28.6296 104.814 29.8181 107.375 29.8181C109.938 29.8181 110.874 28.6296 110.874 27.0574C110.874 26.892 110.859 26.734 110.829 26.5835H107.226V27.6291ZM111.739 29.6902H113.087V24.4247H111.739V29.6902ZM113.815 25.7185H116.317V29.6902H117.665V25.7185H120.161V24.4247H113.815V25.7185ZM120.636 29.6902L121.152 28.7349H124.404L124.921 29.6902H126.374L123.602 24.4247H121.946L119.182 29.6902H120.636ZM122.778 25.741L123.782 27.5915H121.773L122.778 25.741ZM128.311 24.4247H126.963V29.6902H132.408V28.4415H128.311V24.4247ZM139.773 27.3057L137.1 24.4247H135.975V29.6902H137.324V26.3729L139.773 29.0358L142.223 26.3729V29.6902H143.572V24.4247H142.447L139.773 27.3057ZM145.625 29.6902L146.142 28.7349H149.393L149.91 29.6902H151.363L148.592 24.4247H146.936L144.172 29.6902H145.625ZM147.768 25.741L148.772 27.5915H146.764L147.768 25.741ZM155.549 24.4247H151.952V29.6902H153.3V28.3362H155.586L156.612 29.6902H158.073L156.882 28.1256C157.669 27.8248 157.998 27.2079 157.998 26.3804C157.998 25.1844 157.301 24.4247 155.549 24.4247ZM155.549 27.1928H153.3V25.5755H155.549C156.364 25.5755 156.649 25.884 156.649 26.3804C156.649 26.8844 156.364 27.1928 155.549 27.1928ZM163.877 24.4247L162.065 26.4331H160.192V24.4247H158.844V29.6902H160.192V27.6818H162.065L163.877 29.6902H165.541L163.188 27.0574L165.541 24.4247H163.877ZM171.806 24.4247H166.21V29.6902H171.806V28.5468H167.559V27.584H171.604V26.5384H167.559V25.5755H171.806V24.4247ZM172.303 25.7185H174.805V29.6902H176.153V25.7185H178.648V24.4247H172.303V25.7185ZM179.363 29.6902H180.712V24.4247H179.363V29.6902ZM186.811 27.8172L182.938 24.4247H181.814V29.6902H183.163V26.2901L187.036 29.6902H188.159V24.4247H186.811V27.8172ZM192.378 27.6291H194.602C194.409 28.261 193.831 28.6672 192.528 28.6672C190.857 28.6672 190.378 28.0053 190.378 27.0574C190.378 26.1096 190.857 25.4477 192.528 25.4477C193.584 25.4477 194.169 25.7486 194.43 26.2074H195.913C195.607 25.0791 194.602 24.2968 192.528 24.2968C189.966 24.2968 189.029 25.4853 189.029 27.0574C189.029 28.6296 189.966 29.8181 192.528 29.8181C195.09 29.8181 196.026 28.6296 196.026 27.0574C196.026 26.892 196.011 26.734 195.981 26.5835H192.378V27.6291Z" fill="#161515"/>
<path fill-rule="evenodd" clip-rule="evenodd" d="M27.171 29.645C27.1766 29.649 27.183 29.6516 27.1897 29.6525C27.193 29.6533 27.1964 29.6537 27.1998 29.6537H35.0385C35.0454 29.6537 35.0522 29.6521 35.0583 29.649C35.062 29.647 35.0655 29.6444 35.0685 29.6414L35.0709 29.6389L35.0734 29.6355C35.0773 29.6299 35.0798 29.6234 35.0806 29.6166C35.0815 29.6097 35.0806 29.6029 35.0782 29.5964L30.1836 16.4369C30.1806 16.4288 30.1751 16.4219 30.168 16.417C30.1626 16.4132 30.1564 16.4109 30.1499 16.4099C30.1465 16.4091 30.143 16.4087 30.1395 16.4087H22.4047C22.3979 16.4086 22.3912 16.4101 22.3851 16.4132C22.379 16.4163 22.3737 16.4208 22.3697 16.4263C22.3657 16.4318 22.3632 16.4383 22.3622 16.445C22.3612 16.4517 22.3619 16.4587 22.3642 16.4651L27.1556 29.6247C27.1585 29.6329 27.1639 29.64 27.171 29.645ZM13.0251 16.4525C13.0205 16.4526 13.0159 16.4537 13.0118 16.4558C13.0077 16.458 13.0041 16.4611 13.0014 16.4649C12.9988 16.4687 12.997 16.473 12.9964 16.4777C12.9957 16.4823 12.9962 16.487 12.9978 16.4913L17.7874 29.6553C17.7895 29.661 17.7932 29.6658 17.7981 29.6693C17.7997 29.6705 17.8014 29.6715 17.8032 29.6723C17.806 29.6735 17.8087 29.6742 17.8116 29.6745C17.8141 29.6752 17.8167 29.6756 17.8193 29.6756H25.688C25.6904 29.6755 25.6928 29.6751 25.6951 29.6745C25.6973 29.6739 25.6994 29.673 25.7014 29.672C25.7055 29.6697 25.709 29.6665 25.7115 29.6626C25.7141 29.6587 25.7158 29.6543 25.7163 29.6497C25.7169 29.645 25.7162 29.6403 25.7145 29.6359L20.819 16.4719C20.8169 16.4664 20.8131 16.4617 20.8082 16.4584C20.8044 16.4557 20.7998 16.4541 20.7951 16.4536L20.7925 16.453C20.7908 16.4527 20.7889 16.4525 20.7872 16.4525H13.0251Z" fill="#161515"/>
</g>
</g>
<defs>
<clipPath id="clip0_88_1773">
<rect width="197" height="30" fill="white"/>
</clipPath>
</defs>
</svg>
