<svg width="101" height="55" viewBox="0 0 101 55" fill="none" xmlns="http://www.w3.org/2000/svg">
<path d="M0.0105691 20.3518C-0.0744506 18.1072 0.350648 15.8627 1.38789 13.7202C2.59517 10.9486 4.41459 8.70406 6.91417 6.98666C8.54655 5.8644 10.366 4.9972 12.3384 4.5721C14.5829 4.06199 16.7424 3.97697 19.072 4.40206C23.646 5.26927 27.0978 7.85386 29.5974 11.6457C30.9747 13.8052 31.7569 16.1348 32.012 18.7194C32.097 20.1817 32.012 21.6441 31.927 23.0384C31.842 23.8206 31.6719 24.5007 31.4169 25.2829C30.4646 28.4796 28.5772 31.1493 25.8906 33.2067C24.0711 34.6691 22.0987 35.6213 19.8542 36.1314C17.6096 36.6415 15.2801 36.6415 13.0356 36.3015C9.83885 35.7913 7.08421 34.312 4.75467 31.8974C3.46237 30.6051 2.42513 29.1428 1.55793 27.4934C0.537691 25.2659 0.0105691 22.8513 0.0105691 20.3518ZM5.96195 20.4368C5.96195 20.8619 5.96195 21.304 6.04697 21.6441C6.21701 23.9736 7.16923 26.0481 8.80161 27.7655C11.2162 30.095 14.0558 31.1323 17.4226 30.7752C18.7999 30.6051 20.0922 30.18 21.2995 29.3979C23.9691 27.5784 25.7885 25.1809 26.1286 21.8991C26.4687 18.6174 25.7885 15.6927 23.544 13.1931C22.0817 11.5607 20.2623 10.4385 18.1198 10.0814C16.0453 9.7413 13.9028 9.82632 11.9133 10.7785C9.92387 11.7308 8.46153 13.1081 7.42429 14.9105C6.30203 16.6449 5.87693 18.4473 5.96195 20.4368Z" fill="#161515"/>
<path d="M94.6036 14.3668C93.5664 13.3296 92.3591 12.2583 91.2368 11.5612C88.6522 10.0988 85.8976 9.65674 83.0409 10.2689C79.9292 10.966 77.7017 12.6834 76.1373 15.4381C75.4402 16.6454 75.0151 17.9377 75.0151 19.315C75.0151 20.6073 75.0151 21.9846 75.3552 23.2769C75.8653 25.0793 76.8175 26.5587 78.1948 27.851C81.2895 30.6906 84.9114 31.4728 88.9753 30.4356C91.4749 29.8404 93.1073 28.106 94.1445 25.6915H93.3623H86.2037C85.4215 25.6915 85.4215 25.6915 85.4215 24.9093V20.9474C85.4215 20.3522 85.4215 20.3522 86.0336 20.3522H100.181C100.793 20.3522 100.793 20.3522 100.793 20.9474C100.878 23.0218 100.623 24.9943 99.8408 26.8987C98.9736 29.1433 97.6813 31.1157 95.9639 32.7651C94.2465 34.3975 92.2571 35.5197 89.9275 36.0469C87.598 36.642 85.1834 36.744 82.8539 36.3019C81.0515 36.0469 79.3171 35.5197 77.7697 34.7546C75.6952 33.7173 73.8928 32.255 72.5155 30.4356C71.1382 28.6331 70.186 26.6437 69.5908 24.3992C68.9787 21.9846 68.8937 19.57 69.4208 17.0705C70.203 13.1936 72.2604 10.0818 75.2871 7.66728C77.0896 6.20494 79.164 5.25272 81.4086 4.82762C84.2482 4.23248 87.0199 4.3175 89.8595 4.91264C93.2263 5.6098 95.9809 7.3272 98.3105 9.74176C98.6506 10.0818 98.6506 10.1669 98.3105 10.609C97.1882 11.6462 96.083 12.7004 95.0287 13.8907C94.6036 14.3668 94.7737 14.1968 94.6036 14.3668Z" fill="#161515"/>
<path d="M41.8229 13.1933C41.8229 13.6184 41.9079 14.0605 41.9079 14.5707C41.9929 15.1658 41.9929 15.863 42.0779 16.4751C42.1629 16.9002 41.9929 16.9852 41.6528 17.0702C40.7856 17.1553 39.9354 17.3253 39.1532 17.4103C38.4561 17.4953 37.8609 17.5804 37.1638 17.6654C37.0788 17.6654 36.9937 17.7504 36.8237 17.8354C38.6261 18.2605 40.3605 18.6176 42.1629 18.9577C40.8706 24.0419 39.6634 29.041 38.4561 34.1252C37.8439 33.9552 37.3338 33.8701 36.8237 33.7851C35.6164 33.5301 34.3241 33.19 33.1168 32.8329C32.6917 32.7479 32.6067 32.5778 32.6917 32.1357C33.3039 29.8912 33.814 27.7317 34.3241 25.5042C34.6642 24.0419 35.0213 22.5795 35.3614 21.1002C35.5314 20.233 35.7865 19.3828 35.9735 18.6006C36.0585 18.0055 36.2286 17.3933 36.1435 16.8832C35.9735 14.8087 35.7184 12.8363 35.4464 10.7618C35.1913 8.60228 35.0213 6.5448 34.7492 4.3853C34.6642 3.79017 34.7492 3.68814 35.3443 3.68814C36.5516 3.5181 37.6739 3.43308 38.7961 3.26304C39.2212 3.26304 39.4933 3.26304 39.8334 3.5181C43.3022 6.37476 46.737 9.14641 50.2738 11.901C50.6989 12.2411 51.141 12.5982 51.7361 13.0233C51.8212 12.8533 51.8212 12.6832 51.9912 12.5982C54.5758 9.40147 57.1604 6.13671 59.745 2.93997C60.2551 2.34483 60.6972 1.73269 61.2073 1.13755C61.3774 0.967511 61.6324 0.797472 61.8025 0.712452C63.0948 0.542413 64.3871 0.457393 65.6794 0.287354C66.0195 0.287354 66.1045 0.287354 66.1895 0.627432C66.3595 2.78693 66.5296 4.75939 66.7846 6.74885C66.9547 8.73831 67.2097 10.6257 67.4818 12.6152C67.5668 13.3974 67.5668 13.3974 66.7846 13.4824C65.4923 13.6525 64.2 13.8225 62.9928 14.0946H62.8227C61.3604 14.2646 61.5304 14.2646 61.4454 13.0573C61.3604 12.4622 61.3604 11.85 61.2754 11.0679C61.0203 11.3229 60.8503 11.4929 60.6802 11.663C59.898 12.5302 59.2179 13.4654 58.5207 14.4176C58.3507 14.6727 58.0956 14.7577 57.8236 14.7577C55.1539 15.0978 52.4843 15.5399 49.8997 15.965C48.8625 16.135 47.9103 16.22 46.89 16.3901C46.4649 16.4751 46.1078 16.3901 45.7678 16.135C44.5605 15.0978 43.3532 14.1456 42.1459 13.2103C41.9929 13.1083 41.9079 13.1083 41.8229 13.1933Z" fill="#161515"/>
<path d="M63.0439 40.2635C62.1767 40.0935 61.4966 39.9234 60.7994 39.7534C59.8472 39.4983 58.895 39.2433 57.8747 38.9712C57.4496 38.8862 57.4496 38.7161 57.5347 38.3591C57.7897 37.2368 58.0448 36.1145 58.4019 34.9923C59.099 32.1526 59.8642 29.296 60.5614 26.4563C60.8164 25.5041 60.9865 24.5519 61.2585 23.6166C61.4286 23.0215 61.4286 23.0215 62.0407 23.1065C63.5881 23.3616 65.0504 23.7187 66.6148 24.0587C67.3119 24.2288 67.3969 24.2288 67.1249 24.926C66.6998 26.6434 66.2577 28.3778 65.8326 30.0951C65.1354 32.7648 64.5403 35.4344 63.8431 38.121C63.7581 38.6311 63.5881 39.1582 63.418 39.6684C63.299 40.0084 63.129 40.1785 63.0439 40.2635Z" fill="#161515"/>
<path d="M57.6877 22.5113C55.2732 23.9736 52.8586 25.436 50.359 27.0003C48.9817 24.6708 47.5194 22.3413 46.04 19.8417C50.002 20.7089 53.8789 21.4741 57.6877 22.3413C57.6027 22.3413 57.6027 22.4263 57.6877 22.5113Z" fill="#161515"/>
<path d="M25.7885 52.4214H24.4962V51.6393C23.799 52.5915 22.8638 52.6765 22.5067 52.6765C20.9594 52.6765 19.582 51.4692 19.582 49.5648C19.582 47.6603 20.8743 46.368 22.5067 46.368C23.3739 46.368 24.0541 46.7081 24.4111 47.4053V46.5381H25.7035L25.7885 52.4214ZM20.9594 49.4968C20.9594 50.534 21.6565 51.2142 22.6767 51.2142C23.714 51.2142 24.3941 50.432 24.3941 49.3947C24.3941 48.3575 23.697 47.5923 22.6767 47.5923C21.6565 47.5923 20.9594 48.3745 20.9594 49.4968Z" fill="#161515"/>
<path d="M37.0111 51.4693C37.0111 53.6288 35.4638 54.6661 33.8144 54.6661C32.4371 54.6661 31.2298 53.8839 30.8897 52.5066H32.5221C32.7771 53.2888 33.6443 53.3738 33.8144 53.3738C34.7666 53.3738 35.5318 52.5916 35.5318 51.7414V51.5714C35.3617 51.8264 34.8346 52.5236 33.8144 52.5236C32.182 52.5236 30.8047 51.1463 30.8047 49.4119C30.8047 47.6094 32.182 46.3171 33.8144 46.3171C34.2395 46.3171 35.1067 46.4022 35.6168 47.3544V46.5722H36.9091L37.0111 51.4693ZM32.267 49.3268C32.267 50.2791 32.8622 51.1293 33.9844 51.1293C35.0217 51.1293 35.7018 50.3471 35.7018 49.4119C35.7018 48.3746 35.0047 47.6094 33.9844 47.6094C32.8622 47.5924 32.267 48.4596 32.267 49.3268Z" fill="#161515"/>
<path d="M43.6425 50.0069C43.8125 50.7041 44.4247 51.2142 45.1898 51.2142C45.6149 51.2142 46.1421 51.0442 46.4821 50.6191H48.1145C47.3323 52.5235 45.5299 52.5235 45.1898 52.5235C43.0303 52.5235 42.0781 50.8061 42.0781 49.4288C42.0781 48.0515 43.1154 46.2321 45.2749 46.2321C47.0773 46.2321 48.2846 47.6094 48.2846 49.4288V50.0239H43.6425V50.0069ZM46.8222 48.7997C46.6522 48.0175 45.955 47.5924 45.2749 47.5924C44.4927 47.5924 43.8975 48.1025 43.6425 48.7997H46.8222Z" fill="#161515"/>
<path d="M53.3857 46.4702H54.678V46.9803C54.8481 46.7252 55.3752 46.1981 56.3104 46.1981C57.6877 46.1981 58.64 47.1503 58.64 48.8677V52.3195H57.2626V49.2078C57.2626 47.9155 56.6675 47.5754 56.0554 47.5754C54.9331 47.5754 54.8481 48.6977 54.8481 49.2078V52.4046H53.4708L53.3857 46.4702Z" fill="#161515"/>
<path d="M70.0326 50.4491C69.6075 51.6564 68.5703 52.6086 67.1079 52.6086C64.8634 52.6086 63.8262 50.8912 63.8262 49.4119C63.8262 48.0345 64.8634 46.3171 67.0229 46.3171C68.4853 46.3171 69.6075 47.1843 70.0326 48.4766H68.4002C68.1452 47.9665 67.618 47.6945 67.0229 47.6945C65.9007 47.6945 65.2205 48.5617 65.2205 49.4969C65.2205 50.5341 65.9177 51.2993 67.0229 51.2993C67.278 51.2993 68.0602 51.2143 68.4002 50.5171L70.0326 50.4491Z" fill="#161515"/>
<path d="M80.5413 46.4701L77.0895 54.4109H75.5421L76.6644 51.9114L74.5049 46.5721H76.1373L77.5146 50.364L78.8919 46.5721C78.9939 46.4701 80.5413 46.4701 80.5413 46.4701Z" fill="#161515"/>
</svg>
