<svg width="105" height="31" viewBox="0 0 105 31" fill="none" xmlns="http://www.w3.org/2000/svg">
<path d="M17.132 24.0783C17.4657 24.0783 17.7362 24.3468 17.7362 24.6779V29.5653C17.7362 29.8965 17.4657 30.1649 17.132 30.1649H14.0568C11.4347 30.1649 9.39069 29.5352 7.92457 28.276C6.45847 26.9887 5.72542 24.9038 5.72542 22.0214V13.3023C5.72542 12.9711 5.45493 12.7026 5.12126 12.7026H1.64127C1.3076 12.7026 1.03711 12.4341 1.03711 12.103V7.09987C1.03711 6.90218 1.19857 6.74192 1.39775 6.74192C3.78786 6.74192 5.72542 4.81877 5.72542 2.44645V1.47222C5.72542 1.22969 5.92351 1.03308 6.16786 1.03308H12.3531C12.6868 1.03308 12.9572 1.30156 12.9572 1.63275V6.14225C12.9572 6.47344 13.2278 6.74192 13.5615 6.74192H17.0898C17.4234 6.74192 17.6939 7.0104 17.6939 7.34158V12.103C17.6939 12.4341 17.4234 12.7026 17.0898 12.7026H13.5615C13.2278 12.7026 12.9572 12.9711 12.9572 13.3023V22.1054C12.9572 22.8051 13.1264 23.3087 13.4647 23.6166C13.8031 23.9244 14.3669 24.0783 15.1564 24.0783H17.132Z" fill="#161515"/>
<path d="M27.1194 30.5008C25.8507 30.5008 24.8075 30.1369 23.9898 29.4094C23.2004 28.6538 22.8057 27.7302 22.8057 26.6389C22.8057 25.5195 23.2004 24.582 23.9898 23.8265C24.8075 23.0709 25.8507 22.693 27.1194 22.693C28.3599 22.693 29.3749 23.0709 30.1643 23.8265C30.982 24.582 31.3908 25.5195 31.3908 26.6389C31.3908 27.7302 30.982 28.6538 30.1643 29.4094C29.3749 30.1369 28.3599 30.5008 27.1194 30.5008ZM27.1194 13.4162C25.8507 13.4162 24.8075 13.0524 23.9898 12.3248C23.2004 11.5692 22.8057 10.6458 22.8057 9.55434C22.8057 8.43495 23.2004 7.49748 23.9898 6.74189C24.8075 5.9863 25.8507 5.60852 27.1194 5.60852C28.3599 5.60852 29.3749 5.9863 30.1643 6.74189C30.982 7.49748 31.3908 8.43495 31.3908 9.55434C31.3908 10.6458 30.982 11.5692 30.1643 12.3248C29.3749 13.0524 28.3599 13.4162 27.1194 13.4162Z" fill="#161515"/>
<path d="M67.8372 6.49011C70.7694 6.49011 73.0954 7.37163 74.8153 9.13465C76.5633 10.8977 77.4373 13.3463 77.4373 16.4806V29.5653C77.4373 29.8966 77.1668 30.165 76.8331 30.165H70.8519C70.5182 30.165 70.2478 29.8966 70.2478 29.5653V17.4461C70.2478 15.9349 69.839 14.7735 69.0213 13.962C68.2319 13.1225 67.1323 12.7027 65.7226 12.7027C64.3129 12.7027 63.1992 13.1225 62.3815 13.962C61.5921 14.7735 61.1974 15.9349 61.1974 17.4461V29.5653C61.1974 29.8966 60.9269 30.165 60.5932 30.165H54.612C54.2784 30.165 54.0078 29.8966 54.0078 29.5653V17.4461C54.0078 15.9349 53.5991 14.7735 52.7814 13.962C51.992 13.1225 50.8924 12.7027 49.4827 12.7027C48.0729 12.7027 46.9593 13.1225 46.1416 13.962C45.3522 14.7735 44.9575 15.9349 44.9575 17.4461V29.5653C44.9575 29.8966 44.687 30.165 44.3533 30.165H38.3297C37.9961 30.165 37.7256 29.8966 37.7256 29.5653V7.34164C37.7256 7.01046 37.9961 6.74198 38.3297 6.74198H44.3533C44.687 6.74198 44.9575 7.01046 44.9575 7.34164V9.68035C45.6905 8.7009 46.6491 7.93132 47.8333 7.37163C49.0175 6.78395 50.3567 6.49011 51.851 6.49011C53.6273 6.49011 55.206 6.86791 56.5876 7.62349C57.9973 8.37907 59.0969 9.45647 59.8863 10.8557C60.704 9.56841 61.8176 8.51899 63.2274 7.70744C64.6371 6.89589 66.1737 6.49011 67.8372 6.49011Z" fill="#161515"/>
<path d="M104.741 18.0756C104.741 18.7473 104.699 19.4469 104.614 20.1745H88.2471C88.3599 21.6297 88.8251 22.7491 89.6427 23.5326C90.4886 24.2882 91.5177 24.666 92.73 24.666C94.3931 24.666 95.5891 24.0243 96.3181 22.7407C96.4337 22.5371 96.6447 22.3993 96.88 22.3993H103.414C103.808 22.3993 104.097 22.7683 103.973 23.1394C103.554 24.3858 102.907 25.5243 102.034 26.555C101.019 27.7863 99.7367 28.7518 98.186 29.4514C96.6349 30.151 94.901 30.5008 92.9838 30.5008C90.6718 30.5008 88.6136 30.011 86.8092 29.0316C85.0047 28.0521 83.5951 26.653 82.5801 24.8339C81.5651 23.0149 81.0576 20.8881 81.0576 18.4535C81.0576 16.0188 81.551 13.892 82.5378 12.073C83.5528 10.254 84.9624 8.85477 86.7669 7.87531C88.5713 6.89586 90.6436 6.40613 92.9838 6.40613C95.2675 6.40613 97.2974 6.88187 99.0737 7.83334C100.85 8.78482 102.231 10.1421 103.218 11.9051C104.233 13.6681 104.741 15.725 104.741 18.0756ZM97.3402 16.1867C97.3402 14.9554 96.9169 13.9759 96.0711 13.2484C95.2252 12.5207 94.1679 12.157 92.8992 12.157C91.6868 12.157 90.6577 12.5068 89.8119 13.2063C88.9943 13.9059 88.4868 14.8994 88.2894 16.1867H97.3402Z" fill="#161515"/>
</svg>
